<?xml version="1.0" encoding="utf-8" standalone="no"?>
<!DOCTYPE svg PUBLIC "-//W3C//DTD SVG 1.1//EN"
  "http://www.w3.org/Graphics/SVG/1.1/DTD/svg11.dtd">
<svg xmlns:xlink="http://www.w3.org/1999/xlink" width="1745.33pt" height="665.3pt" viewBox="0 0 1745.33 665.3" xmlns="http://www.w3.org/2000/svg" version="1.1">
 <metadata>
  <rdf:RDF xmlns:dc="http://purl.org/dc/elements/1.1/" xmlns:cc="http://creativecommons.org/ns#" xmlns:rdf="http://www.w3.org/1999/02/22-rdf-syntax-ns#">
   <cc:Work>
    <dc:type rdf:resource="http://purl.org/dc/dcmitype/StillImage"/>
    <dc:date>2025-04-27T16:42:45.621416</dc:date>
    <dc:format>image/svg+xml</dc:format>
    <dc:creator>
     <cc:Agent>
      <dc:title>Matplotlib v3.7.3, https://matplotlib.org/</dc:title>
     </cc:Agent>
    </dc:creator>
   </cc:Work>
  </rdf:RDF>
 </metadata>
 <defs>
  <style type="text/css">*{stroke-linejoin: round; stroke-linecap: butt}</style>
 </defs>
 <g id="figure_1">
  <g id="patch_1">
   <path d="M 0 665.3 
L 1745.33 665.3 
L 1745.33 0 
L 0 0 
z
" style="fill: #ffffff"/>
  </g>
  <g id="axes_1">
   <g id="patch_2">
    <path d="M 89.89 585.16 
L 840.155 585.16 
L 840.155 7.2 
L 89.89 7.2 
z
" style="fill: #ffffff"/>
   </g>
   <g id="matplotlib.axis_1">
    <g id="xtick_1">
     <g id="line2d_1">
      <path d="M 120.530726 585.16 
L 120.530726 7.2 
" clip-path="url(#pafcf4dd63a)" style="fill: none; stroke: #b0b0b0; stroke-width: 0.8; stroke-linecap: square"/>
     </g>
     <g id="line2d_2">
      <defs>
       <path id="m14b70c982c" d="M 0 0 
L 0 3.5 
" style="stroke: #000000; stroke-width: 0.8"/>
      </defs>
      <g>
       <use xlink:href="#m14b70c982c" x="120.530726" y="585.16" style="stroke: #000000; stroke-width: 0.8"/>
      </g>
     </g>
     <g id="text_1">
      <!-- 0 -->
      <g transform="translate(110.350726 616.475) scale(0.32 -0.32)">
       <defs>
        <path id="DejaVuSans-30" d="M 2034 4250 
Q 1547 4250 1301 3770 
Q 1056 3291 1056 2328 
Q 1056 1369 1301 889 
Q 1547 409 2034 409 
Q 2525 409 2770 889 
Q 3016 1369 3016 2328 
Q 3016 3291 2770 3770 
Q 2525 4250 2034 4250 
z
M 2034 4750 
Q 2819 4750 3233 4129 
Q 3647 3509 3647 2328 
Q 3647 1150 3233 529 
Q 2819 -91 2034 -91 
Q 1250 -91 836 529 
Q 422 1150 422 2328 
Q 422 3509 836 4129 
Q 1250 4750 2034 4750 
z
" transform="scale(0.015625)"/>
       </defs>
       <use xlink:href="#DejaVuSans-30"/>
      </g>
     </g>
    </g>
    <g id="xtick_2">
     <g id="line2d_3">
      <path d="M 293.64217 585.16 
L 293.64217 7.2 
" clip-path="url(#pafcf4dd63a)" style="fill: none; stroke: #b0b0b0; stroke-width: 0.8; stroke-linecap: square"/>
     </g>
     <g id="line2d_4">
      <g>
       <use xlink:href="#m14b70c982c" x="293.64217" y="585.16" style="stroke: #000000; stroke-width: 0.8"/>
      </g>
     </g>
     <g id="text_2">
      <!-- 5 -->
      <g transform="translate(283.46217 616.475) scale(0.32 -0.32)">
       <defs>
        <path id="DejaVuSans-35" d="M 691 4666 
L 3169 4666 
L 3169 4134 
L 1269 4134 
L 1269 2991 
Q 1406 3038 1543 3061 
Q 1681 3084 1819 3084 
Q 2600 3084 3056 2656 
Q 3513 2228 3513 1497 
Q 3513 744 3044 326 
Q 2575 -91 1722 -91 
Q 1428 -91 1123 -41 
Q 819 9 494 109 
L 494 744 
Q 775 591 1075 516 
Q 1375 441 1709 441 
Q 2250 441 2565 725 
Q 2881 1009 2881 1497 
Q 2881 1984 2565 2268 
Q 2250 2553 1709 2553 
Q 1456 2553 1204 2497 
Q 953 2441 691 2322 
L 691 4666 
z
" transform="scale(0.015625)"/>
       </defs>
       <use xlink:href="#DejaVuSans-35"/>
      </g>
     </g>
    </g>
    <g id="xtick_3">
     <g id="line2d_5">
      <path d="M 466.753614 585.16 
L 466.753614 7.2 
" clip-path="url(#pafcf4dd63a)" style="fill: none; stroke: #b0b0b0; stroke-width: 0.8; stroke-linecap: square"/>
     </g>
     <g id="line2d_6">
      <g>
       <use xlink:href="#m14b70c982c" x="466.753614" y="585.16" style="stroke: #000000; stroke-width: 0.8"/>
      </g>
     </g>
     <g id="text_3">
      <!-- 10 -->
      <g transform="translate(446.393614 616.475) scale(0.32 -0.32)">
       <defs>
        <path id="DejaVuSans-31" d="M 794 531 
L 1825 531 
L 1825 4091 
L 703 3866 
L 703 4441 
L 1819 4666 
L 2450 4666 
L 2450 531 
L 3481 531 
L 3481 0 
L 794 0 
L 794 531 
z
" transform="scale(0.015625)"/>
       </defs>
       <use xlink:href="#DejaVuSans-31"/>
       <use xlink:href="#DejaVuSans-30" x="63.623047"/>
      </g>
     </g>
    </g>
    <g id="xtick_4">
     <g id="line2d_7">
      <path d="M 639.865059 585.16 
L 639.865059 7.2 
" clip-path="url(#pafcf4dd63a)" style="fill: none; stroke: #b0b0b0; stroke-width: 0.8; stroke-linecap: square"/>
     </g>
     <g id="line2d_8">
      <g>
       <use xlink:href="#m14b70c982c" x="639.865059" y="585.16" style="stroke: #000000; stroke-width: 0.8"/>
      </g>
     </g>
     <g id="text_4">
      <!-- 15 -->
      <g transform="translate(619.505059 616.475) scale(0.32 -0.32)">
       <use xlink:href="#DejaVuSans-31"/>
       <use xlink:href="#DejaVuSans-35" x="63.623047"/>
      </g>
     </g>
    </g>
    <g id="xtick_5">
     <g id="line2d_9">
      <path d="M 812.976503 585.16 
L 812.976503 7.2 
" clip-path="url(#pafcf4dd63a)" style="fill: none; stroke: #b0b0b0; stroke-width: 0.8; stroke-linecap: square"/>
     </g>
     <g id="line2d_10">
      <g>
       <use xlink:href="#m14b70c982c" x="812.976503" y="585.16" style="stroke: #000000; stroke-width: 0.8"/>
      </g>
     </g>
     <g id="text_5">
      <!-- 20 -->
      <g transform="translate(792.616503 616.475) scale(0.32 -0.32)">
       <defs>
        <path id="DejaVuSans-32" d="M 1228 531 
L 3431 531 
L 3431 0 
L 469 0 
L 469 531 
Q 828 903 1448 1529 
Q 2069 2156 2228 2338 
Q 2531 2678 2651 2914 
Q 2772 3150 2772 3378 
Q 2772 3750 2511 3984 
Q 2250 4219 1831 4219 
Q 1534 4219 1204 4116 
Q 875 4013 500 3803 
L 500 4441 
Q 881 4594 1212 4672 
Q 1544 4750 1819 4750 
Q 2544 4750 2975 4387 
Q 3406 4025 3406 3419 
Q 3406 3131 3298 2873 
Q 3191 2616 2906 2266 
Q 2828 2175 2409 1742 
Q 1991 1309 1228 531 
z
" transform="scale(0.015625)"/>
       </defs>
       <use xlink:href="#DejaVuSans-32"/>
       <use xlink:href="#DejaVuSans-30" x="63.623047"/>
      </g>
     </g>
    </g>
    <g id="text_6">
     <!-- Time (s) -->
     <g transform="translate(399.97 651.445) scale(0.32 -0.32)">
      <defs>
       <path id="DejaVuSans-54" d="M -19 4666 
L 3928 4666 
L 3928 4134 
L 2272 4134 
L 2272 0 
L 1638 0 
L 1638 4134 
L -19 4134 
L -19 4666 
z
" transform="scale(0.015625)"/>
       <path id="DejaVuSans-69" d="M 603 3500 
L 1178 3500 
L 1178 0 
L 603 0 
L 603 3500 
z
M 603 4863 
L 1178 4863 
L 1178 4134 
L 603 4134 
L 603 4863 
z
" transform="scale(0.015625)"/>
       <path id="DejaVuSans-6d" d="M 3328 2828 
Q 3544 3216 3844 3400 
Q 4144 3584 4550 3584 
Q 5097 3584 5394 3201 
Q 5691 2819 5691 2113 
L 5691 0 
L 5113 0 
L 5113 2094 
Q 5113 2597 4934 2840 
Q 4756 3084 4391 3084 
Q 3944 3084 3684 2787 
Q 3425 2491 3425 1978 
L 3425 0 
L 2847 0 
L 2847 2094 
Q 2847 2600 2669 2842 
Q 2491 3084 2119 3084 
Q 1678 3084 1418 2786 
Q 1159 2488 1159 1978 
L 1159 0 
L 581 0 
L 581 3500 
L 1159 3500 
L 1159 2956 
Q 1356 3278 1631 3431 
Q 1906 3584 2284 3584 
Q 2666 3584 2933 3390 
Q 3200 3197 3328 2828 
z
" transform="scale(0.015625)"/>
       <path id="DejaVuSans-65" d="M 3597 1894 
L 3597 1613 
L 953 1613 
Q 991 1019 1311 708 
Q 1631 397 2203 397 
Q 2534 397 2845 478 
Q 3156 559 3463 722 
L 3463 178 
Q 3153 47 2828 -22 
Q 2503 -91 2169 -91 
Q 1331 -91 842 396 
Q 353 884 353 1716 
Q 353 2575 817 3079 
Q 1281 3584 2069 3584 
Q 2775 3584 3186 3129 
Q 3597 2675 3597 1894 
z
M 3022 2063 
Q 3016 2534 2758 2815 
Q 2500 3097 2075 3097 
Q 1594 3097 1305 2825 
Q 1016 2553 972 2059 
L 3022 2063 
z
" transform="scale(0.015625)"/>
       <path id="DejaVuSans-20" transform="scale(0.015625)"/>
       <path id="DejaVuSans-28" d="M 1984 4856 
Q 1566 4138 1362 3434 
Q 1159 2731 1159 2009 
Q 1159 1288 1364 580 
Q 1569 -128 1984 -844 
L 1484 -844 
Q 1016 -109 783 600 
Q 550 1309 550 2009 
Q 550 2706 781 3412 
Q 1013 4119 1484 4856 
L 1984 4856 
z
" transform="scale(0.015625)"/>
       <path id="DejaVuSans-73" d="M 2834 3397 
L 2834 2853 
Q 2591 2978 2328 3040 
Q 2066 3103 1784 3103 
Q 1356 3103 1142 2972 
Q 928 2841 928 2578 
Q 928 2378 1081 2264 
Q 1234 2150 1697 2047 
L 1894 2003 
Q 2506 1872 2764 1633 
Q 3022 1394 3022 966 
Q 3022 478 2636 193 
Q 2250 -91 1575 -91 
Q 1294 -91 989 -36 
Q 684 19 347 128 
L 347 722 
Q 666 556 975 473 
Q 1284 391 1588 391 
Q 1994 391 2212 530 
Q 2431 669 2431 922 
Q 2431 1156 2273 1281 
Q 2116 1406 1581 1522 
L 1381 1569 
Q 847 1681 609 1914 
Q 372 2147 372 2553 
Q 372 3047 722 3315 
Q 1072 3584 1716 3584 
Q 2034 3584 2315 3537 
Q 2597 3491 2834 3397 
z
" transform="scale(0.015625)"/>
       <path id="DejaVuSans-29" d="M 513 4856 
L 1013 4856 
Q 1481 4119 1714 3412 
Q 1947 2706 1947 2009 
Q 1947 1309 1714 600 
Q 1481 -109 1013 -844 
L 513 -844 
Q 928 -128 1133 580 
Q 1338 1288 1338 2009 
Q 1338 2731 1133 3434 
Q 928 4138 513 4856 
z
" transform="scale(0.015625)"/>
      </defs>
      <use xlink:href="#DejaVuSans-54"/>
      <use xlink:href="#DejaVuSans-69" x="57.958984"/>
      <use xlink:href="#DejaVuSans-6d" x="85.742188"/>
      <use xlink:href="#DejaVuSans-65" x="183.154297"/>
      <use xlink:href="#DejaVuSans-20" x="244.677734"/>
      <use xlink:href="#DejaVuSans-28" x="276.464844"/>
      <use xlink:href="#DejaVuSans-73" x="315.478516"/>
      <use xlink:href="#DejaVuSans-29" x="367.578125"/>
     </g>
    </g>
   </g>
   <g id="matplotlib.axis_2">
    <g id="ytick_1">
     <g id="line2d_11">
      <path d="M 89.89 537.693914 
L 840.155 537.693914 
" clip-path="url(#pafcf4dd63a)" style="fill: none; stroke: #b0b0b0; stroke-width: 0.8; stroke-linecap: square"/>
     </g>
     <g id="line2d_12">
      <defs>
       <path id="ma02fc23e40" d="M 0 0 
L -3.5 0 
" style="stroke: #000000; stroke-width: 0.8"/>
      </defs>
      <g>
       <use xlink:href="#ma02fc23e40" x="89.89" y="537.693914" style="stroke: #000000; stroke-width: 0.8"/>
      </g>
     </g>
     <g id="text_7">
      <!-- 0 -->
      <g transform="translate(62.53 549.851414) scale(0.32 -0.32)">
       <use xlink:href="#DejaVuSans-30"/>
      </g>
     </g>
    </g>
    <g id="ytick_2">
     <g id="line2d_13">
      <path d="M 89.89 423.211823 
L 840.155 423.211823 
" clip-path="url(#pafcf4dd63a)" style="fill: none; stroke: #b0b0b0; stroke-width: 0.8; stroke-linecap: square"/>
     </g>
     <g id="line2d_14">
      <g>
       <use xlink:href="#ma02fc23e40" x="89.89" y="423.211823" style="stroke: #000000; stroke-width: 0.8"/>
      </g>
     </g>
     <g id="text_8">
      <!-- 10 -->
      <g transform="translate(42.17 435.369323) scale(0.32 -0.32)">
       <use xlink:href="#DejaVuSans-31"/>
       <use xlink:href="#DejaVuSans-30" x="63.623047"/>
      </g>
     </g>
    </g>
    <g id="ytick_3">
     <g id="line2d_15">
      <path d="M 89.89 308.729732 
L 840.155 308.729732 
" clip-path="url(#pafcf4dd63a)" style="fill: none; stroke: #b0b0b0; stroke-width: 0.8; stroke-linecap: square"/>
     </g>
     <g id="line2d_16">
      <g>
       <use xlink:href="#ma02fc23e40" x="89.89" y="308.729732" style="stroke: #000000; stroke-width: 0.8"/>
      </g>
     </g>
     <g id="text_9">
      <!-- 20 -->
      <g transform="translate(42.17 320.887232) scale(0.32 -0.32)">
       <use xlink:href="#DejaVuSans-32"/>
       <use xlink:href="#DejaVuSans-30" x="63.623047"/>
      </g>
     </g>
    </g>
    <g id="ytick_4">
     <g id="line2d_17">
      <path d="M 89.89 194.247641 
L 840.155 194.247641 
" clip-path="url(#pafcf4dd63a)" style="fill: none; stroke: #b0b0b0; stroke-width: 0.8; stroke-linecap: square"/>
     </g>
     <g id="line2d_18">
      <g>
       <use xlink:href="#ma02fc23e40" x="89.89" y="194.247641" style="stroke: #000000; stroke-width: 0.8"/>
      </g>
     </g>
     <g id="text_10">
      <!-- 30 -->
      <g transform="translate(42.17 206.405141) scale(0.32 -0.32)">
       <defs>
        <path id="DejaVuSans-33" d="M 2597 2516 
Q 3050 2419 3304 2112 
Q 3559 1806 3559 1356 
Q 3559 666 3084 287 
Q 2609 -91 1734 -91 
Q 1441 -91 1130 -33 
Q 819 25 488 141 
L 488 750 
Q 750 597 1062 519 
Q 1375 441 1716 441 
Q 2309 441 2620 675 
Q 2931 909 2931 1356 
Q 2931 1769 2642 2001 
Q 2353 2234 1838 2234 
L 1294 2234 
L 1294 2753 
L 1863 2753 
Q 2328 2753 2575 2939 
Q 2822 3125 2822 3475 
Q 2822 3834 2567 4026 
Q 2313 4219 1838 4219 
Q 1578 4219 1281 4162 
Q 984 4106 628 3988 
L 628 4550 
Q 988 4650 1302 4700 
Q 1616 4750 1894 4750 
Q 2613 4750 3031 4423 
Q 3450 4097 3450 3541 
Q 3450 3153 3228 2886 
Q 3006 2619 2597 2516 
z
" transform="scale(0.015625)"/>
       </defs>
       <use xlink:href="#DejaVuSans-33"/>
       <use xlink:href="#DejaVuSans-30" x="63.623047"/>
      </g>
     </g>
    </g>
    <g id="ytick_5">
     <g id="line2d_19">
      <path d="M 89.89 79.76555 
L 840.155 79.76555 
" clip-path="url(#pafcf4dd63a)" style="fill: none; stroke: #b0b0b0; stroke-width: 0.8; stroke-linecap: square"/>
     </g>
     <g id="line2d_20">
      <g>
       <use xlink:href="#ma02fc23e40" x="89.89" y="79.76555" style="stroke: #000000; stroke-width: 0.8"/>
      </g>
     </g>
     <g id="text_11">
      <!-- 40 -->
      <g transform="translate(42.17 91.92305) scale(0.32 -0.32)">
       <defs>
        <path id="DejaVuSans-34" d="M 2419 4116 
L 825 1625 
L 2419 1625 
L 2419 4116 
z
M 2253 4666 
L 3047 4666 
L 3047 1625 
L 3713 1625 
L 3713 1100 
L 3047 1100 
L 3047 0 
L 2419 0 
L 2419 1100 
L 313 1100 
L 313 1709 
L 2253 4666 
z
" transform="scale(0.015625)"/>
       </defs>
       <use xlink:href="#DejaVuSans-34"/>
       <use xlink:href="#DejaVuSans-30" x="63.623047"/>
      </g>
     </g>
    </g>
    <g id="text_12">
     <!-- Power (kW) -->
     <g transform="translate(31.515 387.2) rotate(-90) scale(0.32 -0.32)">
      <defs>
       <path id="DejaVuSans-50" d="M 1259 4147 
L 1259 2394 
L 2053 2394 
Q 2494 2394 2734 2622 
Q 2975 2850 2975 3272 
Q 2975 3691 2734 3919 
Q 2494 4147 2053 4147 
L 1259 4147 
z
M 628 4666 
L 2053 4666 
Q 2838 4666 3239 4311 
Q 3641 3956 3641 3272 
Q 3641 2581 3239 2228 
Q 2838 1875 2053 1875 
L 1259 1875 
L 1259 0 
L 628 0 
L 628 4666 
z
" transform="scale(0.015625)"/>
       <path id="DejaVuSans-6f" d="M 1959 3097 
Q 1497 3097 1228 2736 
Q 959 2375 959 1747 
Q 959 1119 1226 758 
Q 1494 397 1959 397 
Q 2419 397 2687 759 
Q 2956 1122 2956 1747 
Q 2956 2369 2687 2733 
Q 2419 3097 1959 3097 
z
M 1959 3584 
Q 2709 3584 3137 3096 
Q 3566 2609 3566 1747 
Q 3566 888 3137 398 
Q 2709 -91 1959 -91 
Q 1206 -91 779 398 
Q 353 888 353 1747 
Q 353 2609 779 3096 
Q 1206 3584 1959 3584 
z
" transform="scale(0.015625)"/>
       <path id="DejaVuSans-77" d="M 269 3500 
L 844 3500 
L 1563 769 
L 2278 3500 
L 2956 3500 
L 3675 769 
L 4391 3500 
L 4966 3500 
L 4050 0 
L 3372 0 
L 2619 2869 
L 1863 0 
L 1184 0 
L 269 3500 
z
" transform="scale(0.015625)"/>
       <path id="DejaVuSans-72" d="M 2631 2963 
Q 2534 3019 2420 3045 
Q 2306 3072 2169 3072 
Q 1681 3072 1420 2755 
Q 1159 2438 1159 1844 
L 1159 0 
L 581 0 
L 581 3500 
L 1159 3500 
L 1159 2956 
Q 1341 3275 1631 3429 
Q 1922 3584 2338 3584 
Q 2397 3584 2469 3576 
Q 2541 3569 2628 3553 
L 2631 2963 
z
" transform="scale(0.015625)"/>
       <path id="DejaVuSans-6b" d="M 581 4863 
L 1159 4863 
L 1159 1991 
L 2875 3500 
L 3609 3500 
L 1753 1863 
L 3688 0 
L 2938 0 
L 1159 1709 
L 1159 0 
L 581 0 
L 581 4863 
z
" transform="scale(0.015625)"/>
       <path id="DejaVuSans-57" d="M 213 4666 
L 850 4666 
L 1831 722 
L 2809 4666 
L 3519 4666 
L 4500 722 
L 5478 4666 
L 6119 4666 
L 4947 0 
L 4153 0 
L 3169 4050 
L 2175 0 
L 1381 0 
L 213 4666 
z
" transform="scale(0.015625)"/>
      </defs>
      <use xlink:href="#DejaVuSans-50"/>
      <use xlink:href="#DejaVuSans-6f" x="56.677734"/>
      <use xlink:href="#DejaVuSans-77" x="117.859375"/>
      <use xlink:href="#DejaVuSans-65" x="199.646484"/>
      <use xlink:href="#DejaVuSans-72" x="261.169922"/>
      <use xlink:href="#DejaVuSans-20" x="302.283203"/>
      <use xlink:href="#DejaVuSans-28" x="334.070312"/>
      <use xlink:href="#DejaVuSans-6b" x="373.083984"/>
      <use xlink:href="#DejaVuSans-57" x="430.994141"/>
      <use xlink:href="#DejaVuSans-29" x="529.871094"/>
     </g>
    </g>
   </g>
   <g id="line2d_21">
    <path d="M 123.992955 497.864822 
L 127.455183 478.218298 
L 130.917412 476.645372 
L 134.379641 487.019688 
L 141.304099 519.104627 
L 144.766328 526.396143 
L 148.228557 512.465675 
L 151.690786 477.657575 
L 162.077472 386.684836 
L 165.539701 360.559525 
L 169.00193 343.052245 
L 172.464159 326.414831 
L 175.926388 312.010236 
L 179.388617 300.411118 
L 182.850846 265.422676 
L 186.313075 260.380186 
L 189.775303 279.119555 
L 193.237532 315.643882 
L 196.699761 363.619156 
L 203.624219 469.356716 
L 207.086448 516.413499 
L 210.548677 549.327642 
L 214.010906 558.889091 
L 217.473135 535.133259 
L 220.935363 530.862711 
L 224.397592 522.369823 
L 227.859821 509.88816 
L 231.32205 494.947246 
L 234.784279 478.634145 
L 238.246508 461.02473 
L 241.708737 436.054378 
L 245.170966 424.641217 
L 248.633195 411.417046 
L 252.095423 397.67576 
L 255.557652 382.72499 
L 259.019881 365.778709 
L 262.48211 347.869403 
L 269.406568 314.876188 
L 272.868797 298.173306 
L 276.331026 255.711764 
L 279.793254 257.30343 
L 283.255483 276.608068 
L 286.717712 315.582487 
L 290.179941 361.667394 
L 297.104399 462.087617 
L 300.566628 506.573037 
L 304.028857 537.995109 
L 307.491086 549.280912 
L 310.953314 530.914136 
L 314.415543 534.338117 
L 317.877772 535.020596 
L 321.340001 531.446322 
L 324.80223 519.256577 
L 328.264459 504.278857 
L 331.726688 485.928867 
L 335.188917 465.646856 
L 342.113374 424.140279 
L 355.96229 343.45795 
L 359.424519 325.478038 
L 362.886748 310.334879 
L 366.348977 297.81306 
L 376.735663 267.680025 
L 380.197892 256.611358 
L 383.660121 243.833132 
L 387.12235 218.806931 
L 390.584579 183.129042 
L 394.046808 213.372239 
L 397.509037 235.651508 
L 400.971266 250.693082 
L 404.433494 258.062149 
L 407.895723 223.437087 
L 411.357952 239.651775 
L 414.820181 261.39978 
L 418.28241 261.321355 
L 421.744639 235.007154 
L 425.206868 181.612854 
L 428.669097 217.362491 
L 432.131326 237.548671 
L 435.593554 269.84028 
L 439.055783 304.508186 
L 442.518012 331.854787 
L 445.980241 423.644893 
L 449.44247 520.282706 
L 452.904699 553.636593 
L 456.366928 532.229212 
L 459.829157 460.222788 
L 463.291386 408.510268 
L 466.753614 346.150336 
L 470.215843 287.786773 
L 473.678072 236.872688 
L 477.140301 169.113394 
L 480.60253 189.176759 
L 484.064759 230.326809 
L 487.526988 238.992709 
L 490.989217 241.789627 
L 494.451446 205.695355 
L 497.913674 234.126357 
L 501.375903 247.21774 
L 504.838132 244.889666 
L 508.300361 196.219169 
L 511.76259 176.934142 
L 515.224819 236.439105 
L 518.687048 270.713046 
L 522.149277 282.060559 
L 525.611506 234.714226 
L 529.073734 225.481434 
L 532.535963 272.081504 
L 535.998192 294.777897 
L 539.460421 286.335042 
L 542.92265 210.650415 
L 546.384879 217.456433 
L 549.847108 247.895848 
L 553.309337 293.089122 
L 556.771566 325.019283 
L 560.233794 344.208609 
L 563.696023 426.843583 
L 570.620481 541.577595 
L 574.08271 552.698442 
L 577.544939 527.604305 
L 581.007168 530.069276 
L 584.469397 526.83094 
L 587.931626 518.684714 
L 591.393854 504.977383 
L 594.856083 486.165468 
L 598.318312 463.575456 
L 605.24277 413.89071 
L 608.704999 392.177289 
L 612.167228 376.919764 
L 615.629457 355.22567 
L 619.091686 335.4126 
L 622.553914 318.934437 
L 626.016143 304.915027 
L 629.478372 270.040923 
L 632.940601 288.413834 
L 636.40283 301.56366 
L 639.865059 294.368468 
L 643.327288 316.529058 
L 646.789517 303.441988 
L 650.251746 309.228833 
L 653.713974 330.255976 
L 657.176203 377.889622 
L 660.638432 385.723716 
L 664.100661 392.254867 
L 667.56289 448.37654 
L 671.025119 473.027605 
L 677.949577 518.598201 
L 681.411805 487.53495 
L 684.874034 475.960252 
L 691.798492 447.679168 
L 695.260721 391.21556 
L 698.72295 353.875852 
L 702.185179 322.783182 
L 705.647408 303.69226 
L 709.109637 301.897438 
L 712.571865 288.637505 
L 716.034094 277.371604 
L 719.496323 266.997979 
L 722.958552 256.234675 
L 726.420781 215.279624 
L 729.88301 236.95502 
L 733.345239 249.337064 
L 736.807468 255.303891 
L 740.269697 247.856241 
L 743.731925 227.813949 
L 747.194154 252.864022 
L 750.656383 263.350767 
L 754.118612 258.709889 
L 757.580841 211.91096 
L 761.04307 171.246226 
L 764.505299 229.369608 
L 767.967528 253.753339 
L 771.429757 306.232822 
L 774.891985 351.237709 
L 778.354214 376.078968 
L 781.816443 435.438007 
L 785.278672 456.685909 
L 788.740901 416.037193 
L 792.20313 289.706377 
L 795.665359 53.907978 
L 795.665359 53.907978 
" clip-path="url(#pafcf4dd63a)" style="fill: none; stroke: #1f77b4; stroke-width: 3; stroke-linecap: square"/>
   </g>
   <g id="line2d_22">
    <path d="M 123.992955 478.250968 
L 127.455183 480.270258 
L 130.917412 483.125764 
L 134.379641 485.410609 
L 137.84187 485.717915 
L 141.304099 482.640804 
L 144.766328 480.784567 
L 148.228557 454.759952 
L 151.690786 422.594752 
L 155.153015 403.117933 
L 158.615243 388.861816 
L 162.077472 385.372314 
L 165.539701 379.395315 
L 169.00193 376.106347 
L 172.464159 379.012343 
L 175.926388 374.591858 
L 179.388617 373.101239 
L 182.850846 373.942439 
L 186.313075 372.734706 
L 189.775303 375.006763 
L 196.699761 369.680402 
L 200.16199 372.171127 
L 203.624219 372.003636 
L 207.086448 369.853387 
L 210.548677 362.804956 
L 214.010906 365.503153 
L 217.473135 366.869566 
L 220.935363 367.121713 
L 224.397592 367.683669 
L 227.859821 369.407835 
L 231.32205 366.638251 
L 234.784279 368.070669 
L 238.246508 368.828098 
L 245.170966 365.576419 
L 248.633195 364.525297 
L 252.095423 355.400248 
L 255.557652 356.554573 
L 259.019881 360.744927 
L 262.48211 365.570512 
L 265.944339 360.809189 
L 269.406568 362.820719 
L 272.868797 367.23636 
L 276.331026 367.673499 
L 279.793254 370.556362 
L 283.255483 365.458901 
L 286.717712 362.024727 
L 290.179941 367.160498 
L 293.64217 372.077928 
L 297.104399 371.466367 
L 300.566628 371.646216 
L 304.028857 372.336566 
L 307.491086 373.591593 
L 310.953314 374.112412 
L 314.415543 377.157425 
L 317.877772 375.43833 
L 321.340001 378.471066 
L 324.80223 377.320489 
L 328.264459 379.222654 
L 331.726688 378.544294 
L 335.188917 374.791494 
L 338.651146 373.338312 
L 342.113374 369.669051 
L 345.575603 366.46777 
L 349.037832 363.547453 
L 352.500061 364.710139 
L 355.96229 360.961 
L 359.424519 364.410687 
L 362.886748 368.87749 
L 366.348977 369.855325 
L 369.811206 370.52476 
L 373.273434 372.291837 
L 376.735663 370.304142 
L 380.197892 369.633938 
L 383.660121 366.41406 
L 387.12235 368.231649 
L 390.584579 361.713062 
L 394.046808 365.969161 
L 397.509037 366.47014 
L 400.971266 364.376874 
L 404.433494 367.500657 
L 407.895723 364.22189 
L 411.357952 365.339211 
L 414.820181 363.882516 
L 418.28241 364.979706 
L 421.744639 367.118676 
L 425.206868 366.886142 
L 428.669097 368.912756 
L 432.131326 370.005342 
L 435.593554 369.150065 
L 439.055783 373.141896 
L 442.518012 370.980322 
L 445.980241 371.742587 
L 449.44247 369.329289 
L 452.904699 369.617274 
L 456.366928 367.641235 
L 459.829157 368.242864 
L 463.291386 367.170048 
L 466.753614 368.800676 
L 470.215843 368.376245 
L 473.678072 371.186066 
L 477.140301 370.230802 
L 480.60253 371.531662 
L 484.064759 370.385587 
L 487.526988 372.816408 
L 490.989217 370.117859 
L 494.451446 371.189176 
L 497.913674 369.402191 
L 501.375903 367.342628 
L 504.838132 367.755945 
L 508.300361 366.365282 
L 511.76259 365.729435 
L 515.224819 365.514581 
L 518.687048 366.624414 
L 522.149277 368.813937 
L 525.611506 368.697859 
L 529.073734 371.710703 
L 532.535963 371.023565 
L 535.998192 372.894176 
L 539.460421 373.26994 
L 542.92265 370.984289 
L 546.384879 372.761318 
L 549.847108 368.602272 
L 553.309337 368.381735 
L 556.771566 364.430193 
L 560.233794 364.618047 
L 563.696023 365.020439 
L 567.158252 368.350778 
L 570.620481 370.235987 
L 574.08271 368.652976 
L 577.544939 372.50503 
L 581.007168 372.212025 
L 584.469397 368.794615 
L 587.931626 370.474019 
L 591.393854 370.70067 
L 594.856083 363.538013 
L 598.318312 363.91583 
L 601.780541 368.576487 
L 605.24277 365.247563 
L 608.704999 364.854514 
L 612.167228 365.477565 
L 615.629457 364.173725 
L 619.091686 365.836697 
L 622.553914 369.651291 
L 626.016143 374.200461 
L 629.478372 365.531323 
L 632.940601 369.557549 
L 636.40283 374.245967 
L 639.865059 369.369949 
L 643.327288 367.863559 
L 646.789517 368.691115 
L 650.251746 366.170997 
L 653.713974 365.511548 
L 657.176203 366.060674 
L 660.638432 367.936343 
L 664.100661 367.760775 
L 667.56289 367.150726 
L 671.025119 369.602479 
L 674.487348 367.778471 
L 677.949577 367.566897 
L 681.411805 370.801478 
L 684.874034 365.879337 
L 688.336263 366.942576 
L 691.798492 365.679085 
L 698.72295 368.542147 
L 702.185179 367.454071 
L 705.647408 369.130276 
L 709.109637 371.633216 
L 712.571865 370.27361 
L 716.034094 373.555014 
L 719.496323 369.525574 
L 722.958552 369.870817 
L 726.420781 367.095086 
L 729.88301 367.879429 
L 733.345239 366.706288 
L 736.807468 369.180161 
L 740.269697 368.431192 
L 743.731925 371.850007 
L 747.194154 369.490372 
L 750.656383 371.311747 
L 754.118612 367.592215 
L 757.580841 368.205845 
L 761.04307 366.53762 
L 764.505299 368.541851 
L 767.967528 368.20998 
L 771.429757 370.977479 
L 774.891985 370.830269 
L 778.354214 374.016561 
L 781.816443 372.064647 
L 785.278672 374.637306 
L 788.740901 371.368642 
L 795.665359 369.873412 
L 799.127588 369.299555 
L 802.589817 368.915687 
L 806.052045 368.777421 
L 806.052045 368.777421 
" clip-path="url(#pafcf4dd63a)" style="fill: none; stroke: #ff7f0e; stroke-width: 3; stroke-linecap: square"/>
   </g>
   <g id="line2d_23">
    <path d="M 123.992955 465.727998 
L 127.455183 469.010985 
L 130.917412 466.624294 
L 134.379641 457.584677 
L 137.84187 440.908882 
L 141.304099 415.613662 
L 144.766328 386.677152 
L 148.228557 332.299489 
L 151.690786 258.793441 
L 155.153015 204.437695 
L 158.615243 162.398461 
L 162.077472 101.654468 
L 165.539701 59.321251 
L 169.00193 33.470909 
L 172.464159 33.517289 
L 175.926388 53.901472 
L 179.388617 91.914107 
L 182.850846 141.638626 
L 186.313075 197.223041 
L 189.775303 242.847831 
L 193.237532 267.625305 
L 196.699761 258.198968 
L 200.16199 255.620473 
L 203.624219 245.534951 
L 207.086448 239.19534 
L 210.548677 232.681455 
L 214.010906 229.542893 
L 217.473135 226.299352 
L 220.935363 226.587367 
L 224.397592 227.611798 
L 227.859821 206.98229 
L 231.32205 214.887762 
L 234.784279 292.137817 
L 238.246508 302.55316 
L 241.708737 329.457341 
L 245.170966 304.411375 
L 248.633195 240.660166 
L 252.095423 207.412786 
L 255.557652 198.823607 
L 259.019881 255.42449 
L 262.48211 256.069517 
L 265.944339 295.331752 
L 269.406568 330.325009 
L 272.868797 277.515562 
L 276.331026 236.030541 
L 279.793254 143.886456 
L 283.255483 59.200963 
L 286.717712 47.661 
L 290.179941 83.858437 
L 293.64217 176.358591 
L 297.104399 211.170702 
L 300.566628 251.960296 
L 304.028857 261.316619 
L 307.491086 267.949235 
L 310.953314 260.995678 
L 314.415543 256.598244 
L 317.877772 248.982467 
L 321.340001 245.1042 
L 324.80223 241.188143 
L 328.264459 239.899654 
L 331.726688 238.881666 
L 335.188917 239.135317 
L 338.651146 239.072558 
L 342.113374 239.673282 
L 345.575603 240.221737 
L 349.037832 240.964412 
L 352.500061 241.664924 
L 355.96229 242.578936 
L 359.424519 243.415995 
L 362.886748 244.201221 
L 366.348977 244.777355 
L 369.811206 245.125845 
L 373.273434 245.068813 
L 376.735663 245.160761 
L 380.197892 245.065807 
L 383.660121 245.022761 
L 387.12235 245.001531 
L 390.584579 245.083513 
L 394.046808 245.277244 
L 397.509037 245.475673 
L 400.971266 245.742146 
L 404.433494 246.018616 
L 407.895723 246.289291 
L 411.357952 246.494154 
L 414.820181 246.618799 
L 418.28241 246.754144 
L 421.744639 246.757595 
L 425.206868 246.715559 
L 428.669097 246.747433 
L 432.131326 246.696818 
L 435.593554 246.697828 
L 439.055783 246.669645 
L 442.518012 246.661833 
L 445.980241 246.633691 
L 449.44247 246.621616 
L 452.904699 246.60266 
L 456.366928 246.589164 
L 459.829157 246.577656 
L 463.291386 246.576289 
L 466.753614 246.573851 
L 470.215843 246.573793 
L 473.678072 246.573834 
L 477.140301 246.577124 
L 480.60253 246.575406 
L 484.064759 246.575741 
L 487.526988 246.573284 
L 490.989217 246.573686 
L 494.451446 246.572873 
L 497.913674 246.572703 
L 501.375903 246.573623 
L 504.838132 246.574266 
L 508.300361 246.574821 
L 511.76259 246.576384 
L 515.224819 246.576987 
L 518.687048 246.577459 
L 522.149277 246.577913 
L 525.611506 246.577975 
L 529.073734 246.577494 
L 532.535963 246.576318 
L 535.998192 246.574297 
" clip-path="url(#pafcf4dd63a)" style="fill: none; stroke: #2ca02c; stroke-width: 3; stroke-linecap: square"/>
   </g>
   <g id="patch_3">
    <path d="M 89.89 585.16 
L 89.89 7.2 
" style="fill: none; stroke: #000000; stroke-width: 0.8; stroke-linejoin: miter; stroke-linecap: square"/>
   </g>
   <g id="patch_4">
    <path d="M 840.155 585.16 
L 840.155 7.2 
" style="fill: none; stroke: #000000; stroke-width: 0.8; stroke-linejoin: miter; stroke-linecap: square"/>
   </g>
   <g id="patch_5">
    <path d="M 89.89 585.16 
L 840.155 585.16 
" style="fill: none; stroke: #000000; stroke-width: 0.8; stroke-linejoin: miter; stroke-linecap: square"/>
   </g>
   <g id="patch_6">
    <path d="M 89.89 7.2 
L 840.155 7.2 
" style="fill: none; stroke: #000000; stroke-width: 0.8; stroke-linejoin: miter; stroke-linecap: square"/>
   </g>
  </g>
  <g id="axes_2">
   <g id="patch_7">
    <path d="M 987.865 585.16 
L 1738.13 585.16 
L 1738.13 7.2 
L 987.865 7.2 
z
" style="fill: #ffffff"/>
   </g>
   <g id="matplotlib.axis_3">
    <g id="xtick_6">
     <g id="line2d_24">
      <path d="M 1018.505726 585.16 
L 1018.505726 7.2 
" clip-path="url(#pa2c76228d5)" style="fill: none; stroke: #b0b0b0; stroke-width: 0.8; stroke-linecap: square"/>
     </g>
     <g id="line2d_25">
      <g>
       <use xlink:href="#m14b70c982c" x="1018.505726" y="585.16" style="stroke: #000000; stroke-width: 0.8"/>
      </g>
     </g>
     <g id="text_13">
      <!-- 0 -->
      <g transform="translate(1008.325726 616.475) scale(0.32 -0.32)">
       <use xlink:href="#DejaVuSans-30"/>
      </g>
     </g>
    </g>
    <g id="xtick_7">
     <g id="line2d_26">
      <path d="M 1191.61717 585.16 
L 1191.61717 7.2 
" clip-path="url(#pa2c76228d5)" style="fill: none; stroke: #b0b0b0; stroke-width: 0.8; stroke-linecap: square"/>
     </g>
     <g id="line2d_27">
      <g>
       <use xlink:href="#m14b70c982c" x="1191.61717" y="585.16" style="stroke: #000000; stroke-width: 0.8"/>
      </g>
     </g>
     <g id="text_14">
      <!-- 5 -->
      <g transform="translate(1181.43717 616.475) scale(0.32 -0.32)">
       <use xlink:href="#DejaVuSans-35"/>
      </g>
     </g>
    </g>
    <g id="xtick_8">
     <g id="line2d_28">
      <path d="M 1364.728614 585.16 
L 1364.728614 7.2 
" clip-path="url(#pa2c76228d5)" style="fill: none; stroke: #b0b0b0; stroke-width: 0.8; stroke-linecap: square"/>
     </g>
     <g id="line2d_29">
      <g>
       <use xlink:href="#m14b70c982c" x="1364.728614" y="585.16" style="stroke: #000000; stroke-width: 0.8"/>
      </g>
     </g>
     <g id="text_15">
      <!-- 10 -->
      <g transform="translate(1344.368614 616.475) scale(0.32 -0.32)">
       <use xlink:href="#DejaVuSans-31"/>
       <use xlink:href="#DejaVuSans-30" x="63.623047"/>
      </g>
     </g>
    </g>
    <g id="xtick_9">
     <g id="line2d_30">
      <path d="M 1537.840059 585.16 
L 1537.840059 7.2 
" clip-path="url(#pa2c76228d5)" style="fill: none; stroke: #b0b0b0; stroke-width: 0.8; stroke-linecap: square"/>
     </g>
     <g id="line2d_31">
      <g>
       <use xlink:href="#m14b70c982c" x="1537.840059" y="585.16" style="stroke: #000000; stroke-width: 0.8"/>
      </g>
     </g>
     <g id="text_16">
      <!-- 15 -->
      <g transform="translate(1517.480059 616.475) scale(0.32 -0.32)">
       <use xlink:href="#DejaVuSans-31"/>
       <use xlink:href="#DejaVuSans-35" x="63.623047"/>
      </g>
     </g>
    </g>
    <g id="xtick_10">
     <g id="line2d_32">
      <path d="M 1710.951503 585.16 
L 1710.951503 7.2 
" clip-path="url(#pa2c76228d5)" style="fill: none; stroke: #b0b0b0; stroke-width: 0.8; stroke-linecap: square"/>
     </g>
     <g id="line2d_33">
      <g>
       <use xlink:href="#m14b70c982c" x="1710.951503" y="585.16" style="stroke: #000000; stroke-width: 0.8"/>
      </g>
     </g>
     <g id="text_17">
      <!-- 20 -->
      <g transform="translate(1690.591503 616.475) scale(0.32 -0.32)">
       <use xlink:href="#DejaVuSans-32"/>
       <use xlink:href="#DejaVuSans-30" x="63.623047"/>
      </g>
     </g>
    </g>
    <g id="text_18">
     <!-- Time (s) -->
     <g transform="translate(1297.945 651.445) scale(0.32 -0.32)">
      <use xlink:href="#DejaVuSans-54"/>
      <use xlink:href="#DejaVuSans-69" x="57.958984"/>
      <use xlink:href="#DejaVuSans-6d" x="85.742188"/>
      <use xlink:href="#DejaVuSans-65" x="183.154297"/>
      <use xlink:href="#DejaVuSans-20" x="244.677734"/>
      <use xlink:href="#DejaVuSans-28" x="276.464844"/>
      <use xlink:href="#DejaVuSans-73" x="315.478516"/>
      <use xlink:href="#DejaVuSans-29" x="367.578125"/>
     </g>
    </g>
   </g>
   <g id="matplotlib.axis_4">
    <g id="ytick_6">
     <g id="line2d_34">
      <path d="M 987.865 558.889091 
L 1738.13 558.889091 
" clip-path="url(#pa2c76228d5)" style="fill: none; stroke: #b0b0b0; stroke-width: 0.8; stroke-linecap: square"/>
     </g>
     <g id="line2d_35">
      <g>
       <use xlink:href="#ma02fc23e40" x="987.865" y="558.889091" style="stroke: #000000; stroke-width: 0.8"/>
      </g>
     </g>
     <g id="text_19">
      <!-- 0.00 -->
      <g transform="translate(909.615 571.046591) scale(0.32 -0.32)">
       <defs>
        <path id="DejaVuSans-2e" d="M 684 794 
L 1344 794 
L 1344 0 
L 684 0 
L 684 794 
z
" transform="scale(0.015625)"/>
       </defs>
       <use xlink:href="#DejaVuSans-30"/>
       <use xlink:href="#DejaVuSans-2e" x="63.623047"/>
       <use xlink:href="#DejaVuSans-30" x="95.410156"/>
       <use xlink:href="#DejaVuSans-30" x="159.033203"/>
      </g>
     </g>
    </g>
    <g id="ytick_7">
     <g id="line2d_36">
      <path d="M 987.865 436.137279 
L 1738.13 436.137279 
" clip-path="url(#pa2c76228d5)" style="fill: none; stroke: #b0b0b0; stroke-width: 0.8; stroke-linecap: square"/>
     </g>
     <g id="line2d_37">
      <g>
       <use xlink:href="#ma02fc23e40" x="987.865" y="436.137279" style="stroke: #000000; stroke-width: 0.8"/>
      </g>
     </g>
     <g id="text_20">
      <!-- 0.02 -->
      <g transform="translate(909.615 448.294779) scale(0.32 -0.32)">
       <use xlink:href="#DejaVuSans-30"/>
       <use xlink:href="#DejaVuSans-2e" x="63.623047"/>
       <use xlink:href="#DejaVuSans-30" x="95.410156"/>
       <use xlink:href="#DejaVuSans-32" x="159.033203"/>
      </g>
     </g>
    </g>
    <g id="ytick_8">
     <g id="line2d_38">
      <path d="M 987.865 313.385468 
L 1738.13 313.385468 
" clip-path="url(#pa2c76228d5)" style="fill: none; stroke: #b0b0b0; stroke-width: 0.8; stroke-linecap: square"/>
     </g>
     <g id="line2d_39">
      <g>
       <use xlink:href="#ma02fc23e40" x="987.865" y="313.385468" style="stroke: #000000; stroke-width: 0.8"/>
      </g>
     </g>
     <g id="text_21">
      <!-- 0.04 -->
      <g transform="translate(909.615 325.542968) scale(0.32 -0.32)">
       <use xlink:href="#DejaVuSans-30"/>
       <use xlink:href="#DejaVuSans-2e" x="63.623047"/>
       <use xlink:href="#DejaVuSans-30" x="95.410156"/>
       <use xlink:href="#DejaVuSans-34" x="159.033203"/>
      </g>
     </g>
    </g>
    <g id="ytick_9">
     <g id="line2d_40">
      <path d="M 987.865 190.633656 
L 1738.13 190.633656 
" clip-path="url(#pa2c76228d5)" style="fill: none; stroke: #b0b0b0; stroke-width: 0.8; stroke-linecap: square"/>
     </g>
     <g id="line2d_41">
      <g>
       <use xlink:href="#ma02fc23e40" x="987.865" y="190.633656" style="stroke: #000000; stroke-width: 0.8"/>
      </g>
     </g>
     <g id="text_22">
      <!-- 0.06 -->
      <g transform="translate(909.615 202.791156) scale(0.32 -0.32)">
       <defs>
        <path id="DejaVuSans-36" d="M 2113 2584 
Q 1688 2584 1439 2293 
Q 1191 2003 1191 1497 
Q 1191 994 1439 701 
Q 1688 409 2113 409 
Q 2538 409 2786 701 
Q 3034 994 3034 1497 
Q 3034 2003 2786 2293 
Q 2538 2584 2113 2584 
z
M 3366 4563 
L 3366 3988 
Q 3128 4100 2886 4159 
Q 2644 4219 2406 4219 
Q 1781 4219 1451 3797 
Q 1122 3375 1075 2522 
Q 1259 2794 1537 2939 
Q 1816 3084 2150 3084 
Q 2853 3084 3261 2657 
Q 3669 2231 3669 1497 
Q 3669 778 3244 343 
Q 2819 -91 2113 -91 
Q 1303 -91 875 529 
Q 447 1150 447 2328 
Q 447 3434 972 4092 
Q 1497 4750 2381 4750 
Q 2619 4750 2861 4703 
Q 3103 4656 3366 4563 
z
" transform="scale(0.015625)"/>
       </defs>
       <use xlink:href="#DejaVuSans-30"/>
       <use xlink:href="#DejaVuSans-2e" x="63.623047"/>
       <use xlink:href="#DejaVuSans-30" x="95.410156"/>
       <use xlink:href="#DejaVuSans-36" x="159.033203"/>
      </g>
     </g>
    </g>
    <g id="ytick_10">
     <g id="line2d_42">
      <path d="M 987.865 67.881844 
L 1738.13 67.881844 
" clip-path="url(#pa2c76228d5)" style="fill: none; stroke: #b0b0b0; stroke-width: 0.8; stroke-linecap: square"/>
     </g>
     <g id="line2d_43">
      <g>
       <use xlink:href="#ma02fc23e40" x="987.865" y="67.881844" style="stroke: #000000; stroke-width: 0.8"/>
      </g>
     </g>
     <g id="text_23">
      <!-- 0.08 -->
      <g transform="translate(909.615 80.039344) scale(0.32 -0.32)">
       <defs>
        <path id="DejaVuSans-38" d="M 2034 2216 
Q 1584 2216 1326 1975 
Q 1069 1734 1069 1313 
Q 1069 891 1326 650 
Q 1584 409 2034 409 
Q 2484 409 2743 651 
Q 3003 894 3003 1313 
Q 3003 1734 2745 1975 
Q 2488 2216 2034 2216 
z
M 1403 2484 
Q 997 2584 770 2862 
Q 544 3141 544 3541 
Q 544 4100 942 4425 
Q 1341 4750 2034 4750 
Q 2731 4750 3128 4425 
Q 3525 4100 3525 3541 
Q 3525 3141 3298 2862 
Q 3072 2584 2669 2484 
Q 3125 2378 3379 2068 
Q 3634 1759 3634 1313 
Q 3634 634 3220 271 
Q 2806 -91 2034 -91 
Q 1263 -91 848 271 
Q 434 634 434 1313 
Q 434 1759 690 2068 
Q 947 2378 1403 2484 
z
M 1172 3481 
Q 1172 3119 1398 2916 
Q 1625 2713 2034 2713 
Q 2441 2713 2670 2916 
Q 2900 3119 2900 3481 
Q 2900 3844 2670 4047 
Q 2441 4250 2034 4250 
Q 1625 4250 1398 4047 
Q 1172 3844 1172 3481 
z
" transform="scale(0.015625)"/>
       </defs>
       <use xlink:href="#DejaVuSans-30"/>
       <use xlink:href="#DejaVuSans-2e" x="63.623047"/>
       <use xlink:href="#DejaVuSans-30" x="95.410156"/>
       <use xlink:href="#DejaVuSans-38" x="159.033203"/>
      </g>
     </g>
    </g>
    <g id="text_24">
     <!-- Energy (kWh) -->
     <g transform="translate(898.96 404.995) rotate(-90) scale(0.32 -0.32)">
      <defs>
       <path id="DejaVuSans-45" d="M 628 4666 
L 3578 4666 
L 3578 4134 
L 1259 4134 
L 1259 2753 
L 3481 2753 
L 3481 2222 
L 1259 2222 
L 1259 531 
L 3634 531 
L 3634 0 
L 628 0 
L 628 4666 
z
" transform="scale(0.015625)"/>
       <path id="DejaVuSans-6e" d="M 3513 2113 
L 3513 0 
L 2938 0 
L 2938 2094 
Q 2938 2591 2744 2837 
Q 2550 3084 2163 3084 
Q 1697 3084 1428 2787 
Q 1159 2491 1159 1978 
L 1159 0 
L 581 0 
L 581 3500 
L 1159 3500 
L 1159 2956 
Q 1366 3272 1645 3428 
Q 1925 3584 2291 3584 
Q 2894 3584 3203 3211 
Q 3513 2838 3513 2113 
z
" transform="scale(0.015625)"/>
       <path id="DejaVuSans-67" d="M 2906 1791 
Q 2906 2416 2648 2759 
Q 2391 3103 1925 3103 
Q 1463 3103 1205 2759 
Q 947 2416 947 1791 
Q 947 1169 1205 825 
Q 1463 481 1925 481 
Q 2391 481 2648 825 
Q 2906 1169 2906 1791 
z
M 3481 434 
Q 3481 -459 3084 -895 
Q 2688 -1331 1869 -1331 
Q 1566 -1331 1297 -1286 
Q 1028 -1241 775 -1147 
L 775 -588 
Q 1028 -725 1275 -790 
Q 1522 -856 1778 -856 
Q 2344 -856 2625 -561 
Q 2906 -266 2906 331 
L 2906 616 
Q 2728 306 2450 153 
Q 2172 0 1784 0 
Q 1141 0 747 490 
Q 353 981 353 1791 
Q 353 2603 747 3093 
Q 1141 3584 1784 3584 
Q 2172 3584 2450 3431 
Q 2728 3278 2906 2969 
L 2906 3500 
L 3481 3500 
L 3481 434 
z
" transform="scale(0.015625)"/>
       <path id="DejaVuSans-79" d="M 2059 -325 
Q 1816 -950 1584 -1140 
Q 1353 -1331 966 -1331 
L 506 -1331 
L 506 -850 
L 844 -850 
Q 1081 -850 1212 -737 
Q 1344 -625 1503 -206 
L 1606 56 
L 191 3500 
L 800 3500 
L 1894 763 
L 2988 3500 
L 3597 3500 
L 2059 -325 
z
" transform="scale(0.015625)"/>
       <path id="DejaVuSans-68" d="M 3513 2113 
L 3513 0 
L 2938 0 
L 2938 2094 
Q 2938 2591 2744 2837 
Q 2550 3084 2163 3084 
Q 1697 3084 1428 2787 
Q 1159 2491 1159 1978 
L 1159 0 
L 581 0 
L 581 4863 
L 1159 4863 
L 1159 2956 
Q 1366 3272 1645 3428 
Q 1925 3584 2291 3584 
Q 2894 3584 3203 3211 
Q 3513 2838 3513 2113 
z
" transform="scale(0.015625)"/>
      </defs>
      <use xlink:href="#DejaVuSans-45"/>
      <use xlink:href="#DejaVuSans-6e" x="63.183594"/>
      <use xlink:href="#DejaVuSans-65" x="126.5625"/>
      <use xlink:href="#DejaVuSans-72" x="188.085938"/>
      <use xlink:href="#DejaVuSans-67" x="227.449219"/>
      <use xlink:href="#DejaVuSans-79" x="290.925781"/>
      <use xlink:href="#DejaVuSans-20" x="350.105469"/>
      <use xlink:href="#DejaVuSans-28" x="381.892578"/>
      <use xlink:href="#DejaVuSans-6b" x="420.90625"/>
      <use xlink:href="#DejaVuSans-57" x="478.816406"/>
      <use xlink:href="#DejaVuSans-68" x="577.693359"/>
      <use xlink:href="#DejaVuSans-29" x="641.072266"/>
     </g>
    </g>
   </g>
   <g id="line2d_44">
    <path d="M 1021.967955 558.889091 
L 1025.430183 558.166412 
L 1028.892412 556.525849 
L 1032.354641 555.485745 
L 1046.203557 555.134998 
L 1049.665786 554.608447 
L 1053.128015 553.32591 
L 1056.590243 551.570377 
L 1060.052472 549.459248 
L 1063.514701 547.04138 
L 1066.97693 544.331139 
L 1070.439159 541.342063 
L 1073.901388 538.08856 
L 1077.363617 534.579632 
L 1084.288075 527.126344 
L 1091.212532 519.303898 
L 1094.674761 515.074425 
L 1098.13699 512.766546 
L 1105.061448 512.359314 
L 1111.985906 512.203108 
L 1118.910363 512.183886 
L 1122.372592 512.053491 
L 1125.834821 511.724465 
L 1129.29705 511.190347 
L 1132.759279 510.418143 
L 1136.221508 509.382613 
L 1139.683737 508.092655 
L 1143.145966 506.557027 
L 1146.608195 504.748758 
L 1150.070423 502.614754 
L 1153.532652 500.160246 
L 1156.994881 498.021159 
L 1160.45711 495.687751 
L 1163.919339 492.591876 
L 1167.381568 489.266273 
L 1170.843797 485.685274 
L 1177.768254 478.141323 
L 1184.692712 470.185193 
L 1188.154941 465.934397 
L 1191.61717 463.635301 
L 1202.003857 462.800195 
L 1205.466086 462.475904 
L 1212.390543 462.314531 
L 1219.315001 462.296504 
L 1222.77723 462.165391 
L 1226.239459 461.793641 
L 1229.701688 461.140938 
L 1233.163917 460.181682 
L 1236.626146 458.924855 
L 1240.088374 457.386099 
L 1243.550603 455.553676 
L 1247.012832 453.421914 
L 1250.475061 450.98846 
L 1253.93729 448.25796 
L 1257.399519 445.244409 
L 1260.861748 441.962345 
L 1264.323977 438.421064 
L 1271.248434 430.910581 
L 1278.172892 422.982226 
L 1281.635121 418.736597 
L 1285.09735 414.225863 
L 1288.559579 409.462734 
L 1292.021808 404.492503 
L 1295.484037 399.299221 
L 1298.946266 393.887567 
L 1302.408494 389.131192 
L 1305.870723 386.973038 
L 1309.332952 384.005452 
L 1316.25741 372.635313 
L 1319.719639 366.770578 
L 1323.181868 363.631376 
L 1326.644097 361.435905 
L 1330.106326 356.424393 
L 1337.030783 344.524044 
L 1340.493012 341.50966 
L 1347.41747 340.324197 
L 1357.804157 339.382147 
L 1361.266386 339.106606 
L 1364.728614 336.663691 
L 1375.115301 322.852696 
L 1378.57753 318.032296 
L 1382.039759 313.016903 
L 1385.501988 307.789288 
L 1388.964217 302.34233 
L 1395.888674 296.435799 
L 1402.813132 285.071709 
L 1406.275361 279.198234 
L 1413.199819 272.887278 
L 1420.124277 260.817348 
L 1423.586506 257.241331 
L 1427.048734 255.2066 
L 1430.510963 251.577742 
L 1433.973192 246.372315 
L 1437.435421 240.106421 
L 1440.89765 236.75997 
L 1444.359879 234.424572 
L 1447.822108 230.528822 
L 1451.284337 225.657804 
L 1454.746566 219.35479 
L 1458.208794 215.993941 
L 1468.595481 214.976217 
L 1478.982168 214.18651 
L 1485.906626 213.887486 
L 1489.368854 213.808836 
L 1492.831083 213.234323 
L 1496.293312 212.057803 
L 1499.755541 210.684789 
L 1503.21777 209.032432 
L 1506.679999 207.063851 
L 1510.142228 204.805092 
L 1513.604457 202.248019 
L 1517.066686 199.403076 
L 1520.528914 196.28457 
L 1523.991143 192.896888 
L 1530.915601 185.493731 
L 1537.840059 177.776334 
L 1541.302288 173.689099 
L 1548.226746 169.176704 
L 1551.688974 164.775907 
L 1558.613432 158.544118 
L 1562.075661 156.140851 
L 1569.000119 155.697271 
L 1575.924577 152.091454 
L 1586.311263 151.641596 
L 1589.773492 150.32613 
L 1593.235721 147.78002 
L 1596.69795 145.09036 
L 1600.160179 142.166687 
L 1603.622408 138.989009 
L 1607.084637 135.564624 
L 1610.546865 131.879788 
L 1617.471323 124.079575 
L 1620.933552 120.02029 
L 1624.395781 115.788927 
L 1627.85801 111.344054 
L 1631.320239 106.656616 
L 1634.782468 101.722118 
L 1638.244697 96.550207 
L 1645.169154 90.890366 
L 1652.093612 79.895465 
L 1655.555841 74.895451 
L 1659.01807 71.908407 
L 1662.480299 68.201972 
L 1669.404757 56.359641 
L 1672.866985 52.515472 
L 1676.329214 51.524323 
L 1683.253672 49.119756 
L 1686.715901 47.286768 
L 1690.17813 42.851774 
L 1693.640359 37.290558 
L 1693.640359 37.290558 
" clip-path="url(#pa2c76228d5)" style="fill: none; stroke: #1f77b4; stroke-width: 3; stroke-linecap: square"/>
   </g>
   <g id="line2d_45">
    <path d="M 1021.967955 558.889091 
L 1025.430183 557.832254 
L 1028.892412 556.060794 
L 1032.354641 555.244551 
L 1039.279099 554.876338 
L 1042.741328 554.109663 
L 1049.665786 551.074701 
L 1053.128015 549.289359 
L 1060.052472 544.840741 
L 1070.439159 537.777468 
L 1084.288075 528.178265 
L 1087.750303 525.516305 
L 1091.212532 523.04496 
L 1094.674761 520.784113 
L 1105.061448 513.258131 
L 1108.523677 510.624916 
L 1111.985906 508.225613 
L 1115.448135 505.68089 
L 1118.910363 502.969667 
L 1125.834821 498.01065 
L 1132.759279 492.951427 
L 1153.532652 477.638578 
L 1163.919339 469.169483 
L 1167.381568 466.858285 
L 1170.843797 464.708192 
L 1174.306026 462.037973 
L 1177.768254 459.20727 
L 1184.692712 454.142339 
L 1205.466086 439.21782 
L 1240.088374 415.228122 
L 1243.550603 412.678716 
L 1247.012832 409.977438 
L 1253.93729 404.927535 
L 1260.861748 399.729056 
L 1271.248434 392.196712 
L 1274.710663 389.92034 
L 1295.484037 374.468544 
L 1302.408494 369.39699 
L 1316.25741 359.108875 
L 1333.568554 346.453551 
L 1357.804157 328.97203 
L 1375.115301 316.417998 
L 1402.813132 296.481423 
L 1423.586506 281.173786 
L 1444.359879 266.374418 
L 1451.284337 261.359628 
L 1472.05771 246.033854 
L 1478.982168 241.255489 
L 1496.293312 228.509301 
L 1499.755541 226.117746 
L 1503.21777 223.584324 
L 1506.679999 220.68376 
L 1510.142228 218.131833 
L 1513.604457 215.916279 
L 1520.528914 210.576238 
L 1534.37783 200.692478 
L 1537.840059 198.27947 
L 1544.764517 193.05346 
L 1548.226746 190.675727 
L 1555.151203 185.446953 
L 1558.613432 183.025245 
L 1565.53789 177.804739 
L 1575.924577 170.41375 
L 1582.849034 165.206484 
L 1589.773492 160.182512 
L 1596.69795 155.096625 
L 1603.622408 150.042227 
L 1655.555841 112.516726 
L 1669.404757 102.37462 
L 1697.102588 82.675628 
L 1704.027045 77.539432 
L 1704.027045 77.539432 
" clip-path="url(#pa2c76228d5)" style="fill: none; stroke: #ff7f0e; stroke-width: 3; stroke-linecap: square"/>
   </g>
   <g id="line2d_46">
    <path d="M 1021.967955 558.889091 
L 1025.430183 557.832254 
L 1028.892412 555.413836 
L 1032.354641 553.880637 
L 1035.81687 553.633569 
L 1039.279099 552.877948 
L 1042.741328 550.926697 
L 1046.203557 547.88265 
L 1049.665786 543.977118 
L 1053.128015 539.309185 
L 1056.590243 533.91767 
L 1060.052472 528.02647 
L 1063.514701 521.735904 
L 1066.97693 514.759896 
L 1070.439159 506.959744 
L 1073.901388 498.392812 
L 1077.363617 490.986036 
L 1080.825846 485.304929 
L 1084.288075 480.333 
L 1087.750303 475.940141 
L 1091.212532 471.73866 
L 1094.674761 467.558382 
L 1098.13699 463.321133 
L 1101.599219 459.014873 
L 1105.061448 454.57266 
L 1108.523677 450.054942 
L 1111.985906 445.471721 
L 1115.448135 440.858271 
L 1118.910363 436.225566 
L 1122.372592 431.595181 
L 1125.834821 426.979717 
L 1129.29705 422.401381 
L 1132.759279 417.877642 
L 1136.221508 413.408249 
L 1139.683737 408.948579 
L 1143.145966 406.516225 
L 1146.608195 406.128638 
L 1150.070423 401.597912 
L 1153.532652 395.03115 
L 1156.994881 388.531908 
L 1160.45711 381.426195 
L 1163.919339 378.40796 
L 1167.381568 378.040864 
L 1170.843797 377.68396 
L 1174.306026 373.200344 
L 1177.768254 365.412586 
L 1181.230483 357.669917 
L 1184.692712 350.071406 
L 1188.154941 343.540178 
L 1191.61717 337.875353 
L 1195.079399 333.060927 
L 1198.541628 328.6706 
L 1202.003857 324.551239 
L 1205.466086 320.462667 
L 1208.928314 316.354792 
L 1212.390543 312.153119 
L 1215.852772 307.876088 
L 1219.315001 303.52183 
L 1222.77723 299.122524 
L 1226.239459 294.690758 
L 1229.701688 290.248055 
L 1233.163917 285.801482 
L 1236.626146 281.359744 
L 1240.088374 276.923135 
L 1243.550603 272.492964 
L 1247.012832 268.067016 
L 1250.475061 263.642617 
L 1253.93729 259.239387 
L 1257.399519 254.858832 
L 1260.861748 250.482819 
L 1264.323977 246.11645 
L 1267.786206 241.760211 
L 1271.248434 237.405004 
L 1274.710663 233.046204 
L 1278.172892 228.686959 
L 1281.635121 224.327967 
L 1285.09735 219.969681 
L 1288.559579 215.611505 
L 1292.021808 211.253757 
L 1295.484037 206.901205 
L 1298.946266 202.55143 
L 1302.408494 198.202698 
L 1305.870723 193.863117 
L 1309.332952 189.526539 
L 1312.795181 185.191005 
L 1316.25741 180.857991 
L 1319.719639 176.524676 
L 1323.181868 172.191552 
L 1326.644097 167.85822 
L 1330.106326 163.525035 
L 1333.568554 159.191318 
L 1337.030783 154.857428 
L 1340.493012 150.52354 
L 1343.955241 146.18936 
L 1347.41747 141.854661 
L 1350.879699 137.519743 
L 1354.341928 133.1847 
L 1357.804157 128.849393 
L 1361.266386 124.513974 
L 1364.728614 120.178572 
L 1368.190843 115.843172 
L 1371.653072 111.507842 
L 1375.115301 107.17245 
L 1378.57753 102.837076 
L 1382.039759 98.501693 
L 1385.501988 94.166291 
L 1388.964217 89.830898 
L 1392.426446 85.495482 
L 1395.888674 81.160028 
L 1399.350903 76.824602 
L 1402.813132 72.489206 
L 1406.275361 68.153805 
L 1409.73759 63.818425 
L 1413.199819 59.48308 
L 1416.662048 55.147715 
L 1420.124277 50.812339 
L 1423.586506 46.476997 
L 1427.048734 42.141649 
L 1430.510963 37.80629 
L 1433.973192 33.470909 
" clip-path="url(#pa2c76228d5)" style="fill: none; stroke: #2ca02c; stroke-width: 3; stroke-linecap: square"/>
   </g>
   <g id="patch_8">
    <path d="M 987.865 585.16 
L 987.865 7.2 
" style="fill: none; stroke: #000000; stroke-width: 0.8; stroke-linejoin: miter; stroke-linecap: square"/>
   </g>
   <g id="patch_9">
    <path d="M 1738.13 585.16 
L 1738.13 7.2 
" style="fill: none; stroke: #000000; stroke-width: 0.8; stroke-linejoin: miter; stroke-linecap: square"/>
   </g>
   <g id="patch_10">
    <path d="M 987.865 585.16 
L 1738.13 585.16 
" style="fill: none; stroke: #000000; stroke-width: 0.8; stroke-linejoin: miter; stroke-linecap: square"/>
   </g>
   <g id="patch_11">
    <path d="M 987.865 7.2 
L 1738.13 7.2 
" style="fill: none; stroke: #000000; stroke-width: 0.8; stroke-linejoin: miter; stroke-linecap: square"/>
   </g>
   <g id="legend_1">
    <g id="patch_12">
     <path d="M 1592.5925 573.16 
L 1721.33 573.16 
Q 1726.13 573.16 1726.13 568.36 
L 1726.13 465.0775 
Q 1726.13 460.2775 1721.33 460.2775 
L 1592.5925 460.2775 
Q 1587.7925 460.2775 1587.7925 465.0775 
L 1587.7925 568.36 
Q 1587.7925 573.16 1592.5925 573.16 
z
" style="fill: #ffffff; opacity: 0.7; stroke: #cccccc; stroke-linejoin: miter"/>
    </g>
    <g id="line2d_47">
     <path d="M 1597.3925 479.71375 
L 1621.3925 479.71375 
L 1645.3925 479.71375 
" style="fill: none; stroke: #1f77b4; stroke-width: 3; stroke-linecap: square"/>
    </g>
    <g id="text_25">
     <!-- LQR -->
     <g transform="translate(1664.5925 488.11375) scale(0.24 -0.24)">
      <defs>
       <path id="DejaVuSans-4c" d="M 628 4666 
L 1259 4666 
L 1259 531 
L 3531 531 
L 3531 0 
L 628 0 
L 628 4666 
z
" transform="scale(0.015625)"/>
       <path id="DejaVuSans-51" d="M 2522 4238 
Q 1834 4238 1429 3725 
Q 1025 3213 1025 2328 
Q 1025 1447 1429 934 
Q 1834 422 2522 422 
Q 3209 422 3611 934 
Q 4013 1447 4013 2328 
Q 4013 3213 3611 3725 
Q 3209 4238 2522 4238 
z
M 3406 84 
L 4238 -825 
L 3475 -825 
L 2784 -78 
Q 2681 -84 2626 -87 
Q 2572 -91 2522 -91 
Q 1538 -91 948 567 
Q 359 1225 359 2328 
Q 359 3434 948 4092 
Q 1538 4750 2522 4750 
Q 3503 4750 4090 4092 
Q 4678 3434 4678 2328 
Q 4678 1516 4351 937 
Q 4025 359 3406 84 
z
" transform="scale(0.015625)"/>
       <path id="DejaVuSans-52" d="M 2841 2188 
Q 3044 2119 3236 1894 
Q 3428 1669 3622 1275 
L 4263 0 
L 3584 0 
L 2988 1197 
Q 2756 1666 2539 1819 
Q 2322 1972 1947 1972 
L 1259 1972 
L 1259 0 
L 628 0 
L 628 4666 
L 2053 4666 
Q 2853 4666 3247 4331 
Q 3641 3997 3641 3322 
Q 3641 2881 3436 2590 
Q 3231 2300 2841 2188 
z
M 1259 4147 
L 1259 2491 
L 2053 2491 
Q 2509 2491 2742 2702 
Q 2975 2913 2975 3322 
Q 2975 3731 2742 3939 
Q 2509 4147 2053 4147 
L 1259 4147 
z
" transform="scale(0.015625)"/>
      </defs>
      <use xlink:href="#DejaVuSans-4c"/>
      <use xlink:href="#DejaVuSans-51" x="55.712891"/>
      <use xlink:href="#DejaVuSans-52" x="134.423828"/>
     </g>
    </g>
    <g id="line2d_48">
     <path d="M 1597.3925 514.94125 
L 1621.3925 514.94125 
L 1645.3925 514.94125 
" style="fill: none; stroke: #ff7f0e; stroke-width: 3; stroke-linecap: square"/>
    </g>
    <g id="text_26">
     <!-- PID -->
     <g transform="translate(1664.5925 523.34125) scale(0.24 -0.24)">
      <defs>
       <path id="DejaVuSans-49" d="M 628 4666 
L 1259 4666 
L 1259 0 
L 628 0 
L 628 4666 
z
" transform="scale(0.015625)"/>
       <path id="DejaVuSans-44" d="M 1259 4147 
L 1259 519 
L 2022 519 
Q 2988 519 3436 956 
Q 3884 1394 3884 2338 
Q 3884 3275 3436 3711 
Q 2988 4147 2022 4147 
L 1259 4147 
z
M 628 4666 
L 1925 4666 
Q 3281 4666 3915 4102 
Q 4550 3538 4550 2338 
Q 4550 1131 3912 565 
Q 3275 0 1925 0 
L 628 0 
L 628 4666 
z
" transform="scale(0.015625)"/>
      </defs>
      <use xlink:href="#DejaVuSans-50"/>
      <use xlink:href="#DejaVuSans-49" x="60.302734"/>
      <use xlink:href="#DejaVuSans-44" x="89.794922"/>
     </g>
    </g>
    <g id="line2d_49">
     <path d="M 1597.3925 550.16875 
L 1621.3925 550.16875 
L 1645.3925 550.16875 
" style="fill: none; stroke: #2ca02c; stroke-width: 3; stroke-linecap: square"/>
    </g>
    <g id="text_27">
     <!-- MPC -->
     <g transform="translate(1664.5925 558.56875) scale(0.24 -0.24)">
      <defs>
       <path id="DejaVuSans-4d" d="M 628 4666 
L 1569 4666 
L 2759 1491 
L 3956 4666 
L 4897 4666 
L 4897 0 
L 4281 0 
L 4281 4097 
L 3078 897 
L 2444 897 
L 1241 4097 
L 1241 0 
L 628 0 
L 628 4666 
z
" transform="scale(0.015625)"/>
       <path id="DejaVuSans-43" d="M 4122 4306 
L 4122 3641 
Q 3803 3938 3442 4084 
Q 3081 4231 2675 4231 
Q 1875 4231 1450 3742 
Q 1025 3253 1025 2328 
Q 1025 1406 1450 917 
Q 1875 428 2675 428 
Q 3081 428 3442 575 
Q 3803 722 4122 1019 
L 4122 359 
Q 3791 134 3420 21 
Q 3050 -91 2638 -91 
Q 1578 -91 968 557 
Q 359 1206 359 2328 
Q 359 3453 968 4101 
Q 1578 4750 2638 4750 
Q 3056 4750 3426 4639 
Q 3797 4528 4122 4306 
z
" transform="scale(0.015625)"/>
      </defs>
      <use xlink:href="#DejaVuSans-4d"/>
      <use xlink:href="#DejaVuSans-50" x="86.279297"/>
      <use xlink:href="#DejaVuSans-43" x="146.582031"/>
     </g>
    </g>
   </g>
  </g>
 </g>
 <defs>
  <clipPath id="pafcf4dd63a">
   <rect x="89.89" y="7.2" width="750.265" height="577.96"/>
  </clipPath>
  <clipPath id="pa2c76228d5">
   <rect x="987.865" y="7.2" width="750.265" height="577.96"/>
  </clipPath>
 </defs>
</svg>
