<?xml version="1.0" encoding="utf-8" standalone="no"?>
<!DOCTYPE svg PUBLIC "-//W3C//DTD SVG 1.1//EN"
  "http://www.w3.org/Graphics/SVG/1.1/DTD/svg11.dtd">
<svg xmlns:xlink="http://www.w3.org/1999/xlink" width="957.180718pt" height="665.3pt" viewBox="0 0 957.180718 665.3" xmlns="http://www.w3.org/2000/svg" version="1.1">
 <metadata>
  <rdf:RDF xmlns:dc="http://purl.org/dc/elements/1.1/" xmlns:cc="http://creativecommons.org/ns#" xmlns:rdf="http://www.w3.org/1999/02/22-rdf-syntax-ns#">
   <cc:Work>
    <dc:type rdf:resource="http://purl.org/dc/dcmitype/StillImage"/>
    <dc:date>2025-04-27T16:42:44.919436</dc:date>
    <dc:format>image/svg+xml</dc:format>
    <dc:creator>
     <cc:Agent>
      <dc:title>Matplotlib v3.7.3, https://matplotlib.org/</dc:title>
     </cc:Agent>
    </dc:creator>
   </cc:Work>
  </rdf:RDF>
 </metadata>
 <defs>
  <style type="text/css">*{stroke-linejoin: round; stroke-linecap: butt}</style>
 </defs>
 <g id="figure_1">
  <g id="patch_1">
   <path d="M 0 665.3 
L 957.180718 665.3 
L 957.180718 0 
L 0 0 
z
" style="fill: #ffffff"/>
  </g>
  <g id="axes_1">
   <g id="patch_2">
    <path d="M 69.53 585.16 
L 946.11 585.16 
L 946.11 7.2 
L 69.53 7.2 
z
" style="fill: #ffffff"/>
   </g>
   <g id="matplotlib.axis_1">
    <g id="xtick_1">
     <g id="line2d_1">
      <path d="M 105.329414 585.16 
L 105.329414 7.2 
" clip-path="url(#p2d5e1577a9)" style="fill: none; stroke: #b0b0b0; stroke-width: 0.8; stroke-linecap: square"/>
     </g>
     <g id="line2d_2">
      <defs>
       <path id="m36566affb9" d="M 0 0 
L 0 3.5 
" style="stroke: #000000; stroke-width: 0.8"/>
      </defs>
      <g>
       <use xlink:href="#m36566affb9" x="105.329414" y="585.16" style="stroke: #000000; stroke-width: 0.8"/>
      </g>
     </g>
     <g id="text_1">
      <!-- 0.0 -->
      <g transform="translate(79.884414 616.475) scale(0.32 -0.32)">
       <defs>
        <path id="DejaVuSans-30" d="M 2034 4250 
Q 1547 4250 1301 3770 
Q 1056 3291 1056 2328 
Q 1056 1369 1301 889 
Q 1547 409 2034 409 
Q 2525 409 2770 889 
Q 3016 1369 3016 2328 
Q 3016 3291 2770 3770 
Q 2525 4250 2034 4250 
z
M 2034 4750 
Q 2819 4750 3233 4129 
Q 3647 3509 3647 2328 
Q 3647 1150 3233 529 
Q 2819 -91 2034 -91 
Q 1250 -91 836 529 
Q 422 1150 422 2328 
Q 422 3509 836 4129 
Q 1250 4750 2034 4750 
z
" transform="scale(0.015625)"/>
        <path id="DejaVuSans-2e" d="M 684 794 
L 1344 794 
L 1344 0 
L 684 0 
L 684 794 
z
" transform="scale(0.015625)"/>
       </defs>
       <use xlink:href="#DejaVuSans-30"/>
       <use xlink:href="#DejaVuSans-2e" x="63.623047"/>
       <use xlink:href="#DejaVuSans-30" x="95.410156"/>
      </g>
     </g>
    </g>
    <g id="xtick_2">
     <g id="line2d_3">
      <path d="M 206.457702 585.16 
L 206.457702 7.2 
" clip-path="url(#p2d5e1577a9)" style="fill: none; stroke: #b0b0b0; stroke-width: 0.8; stroke-linecap: square"/>
     </g>
     <g id="line2d_4">
      <g>
       <use xlink:href="#m36566affb9" x="206.457702" y="585.16" style="stroke: #000000; stroke-width: 0.8"/>
      </g>
     </g>
     <g id="text_2">
      <!-- 2.5 -->
      <g transform="translate(181.012702 616.475) scale(0.32 -0.32)">
       <defs>
        <path id="DejaVuSans-32" d="M 1228 531 
L 3431 531 
L 3431 0 
L 469 0 
L 469 531 
Q 828 903 1448 1529 
Q 2069 2156 2228 2338 
Q 2531 2678 2651 2914 
Q 2772 3150 2772 3378 
Q 2772 3750 2511 3984 
Q 2250 4219 1831 4219 
Q 1534 4219 1204 4116 
Q 875 4013 500 3803 
L 500 4441 
Q 881 4594 1212 4672 
Q 1544 4750 1819 4750 
Q 2544 4750 2975 4387 
Q 3406 4025 3406 3419 
Q 3406 3131 3298 2873 
Q 3191 2616 2906 2266 
Q 2828 2175 2409 1742 
Q 1991 1309 1228 531 
z
" transform="scale(0.015625)"/>
        <path id="DejaVuSans-35" d="M 691 4666 
L 3169 4666 
L 3169 4134 
L 1269 4134 
L 1269 2991 
Q 1406 3038 1543 3061 
Q 1681 3084 1819 3084 
Q 2600 3084 3056 2656 
Q 3513 2228 3513 1497 
Q 3513 744 3044 326 
Q 2575 -91 1722 -91 
Q 1428 -91 1123 -41 
Q 819 9 494 109 
L 494 744 
Q 775 591 1075 516 
Q 1375 441 1709 441 
Q 2250 441 2565 725 
Q 2881 1009 2881 1497 
Q 2881 1984 2565 2268 
Q 2250 2553 1709 2553 
Q 1456 2553 1204 2497 
Q 953 2441 691 2322 
L 691 4666 
z
" transform="scale(0.015625)"/>
       </defs>
       <use xlink:href="#DejaVuSans-32"/>
       <use xlink:href="#DejaVuSans-2e" x="63.623047"/>
       <use xlink:href="#DejaVuSans-35" x="95.410156"/>
      </g>
     </g>
    </g>
    <g id="xtick_3">
     <g id="line2d_5">
      <path d="M 307.58599 585.16 
L 307.58599 7.2 
" clip-path="url(#p2d5e1577a9)" style="fill: none; stroke: #b0b0b0; stroke-width: 0.8; stroke-linecap: square"/>
     </g>
     <g id="line2d_6">
      <g>
       <use xlink:href="#m36566affb9" x="307.58599" y="585.16" style="stroke: #000000; stroke-width: 0.8"/>
      </g>
     </g>
     <g id="text_3">
      <!-- 5.0 -->
      <g transform="translate(282.14099 616.475) scale(0.32 -0.32)">
       <use xlink:href="#DejaVuSans-35"/>
       <use xlink:href="#DejaVuSans-2e" x="63.623047"/>
       <use xlink:href="#DejaVuSans-30" x="95.410156"/>
      </g>
     </g>
    </g>
    <g id="xtick_4">
     <g id="line2d_7">
      <path d="M 408.714278 585.16 
L 408.714278 7.2 
" clip-path="url(#p2d5e1577a9)" style="fill: none; stroke: #b0b0b0; stroke-width: 0.8; stroke-linecap: square"/>
     </g>
     <g id="line2d_8">
      <g>
       <use xlink:href="#m36566affb9" x="408.714278" y="585.16" style="stroke: #000000; stroke-width: 0.8"/>
      </g>
     </g>
     <g id="text_4">
      <!-- 7.5 -->
      <g transform="translate(383.269278 616.475) scale(0.32 -0.32)">
       <defs>
        <path id="DejaVuSans-37" d="M 525 4666 
L 3525 4666 
L 3525 4397 
L 1831 0 
L 1172 0 
L 2766 4134 
L 525 4134 
L 525 4666 
z
" transform="scale(0.015625)"/>
       </defs>
       <use xlink:href="#DejaVuSans-37"/>
       <use xlink:href="#DejaVuSans-2e" x="63.623047"/>
       <use xlink:href="#DejaVuSans-35" x="95.410156"/>
      </g>
     </g>
    </g>
    <g id="xtick_5">
     <g id="line2d_9">
      <path d="M 509.842566 585.16 
L 509.842566 7.2 
" clip-path="url(#p2d5e1577a9)" style="fill: none; stroke: #b0b0b0; stroke-width: 0.8; stroke-linecap: square"/>
     </g>
     <g id="line2d_10">
      <g>
       <use xlink:href="#m36566affb9" x="509.842566" y="585.16" style="stroke: #000000; stroke-width: 0.8"/>
      </g>
     </g>
     <g id="text_5">
      <!-- 10.0 -->
      <g transform="translate(474.217566 616.475) scale(0.32 -0.32)">
       <defs>
        <path id="DejaVuSans-31" d="M 794 531 
L 1825 531 
L 1825 4091 
L 703 3866 
L 703 4441 
L 1819 4666 
L 2450 4666 
L 2450 531 
L 3481 531 
L 3481 0 
L 794 0 
L 794 531 
z
" transform="scale(0.015625)"/>
       </defs>
       <use xlink:href="#DejaVuSans-31"/>
       <use xlink:href="#DejaVuSans-30" x="63.623047"/>
       <use xlink:href="#DejaVuSans-2e" x="127.246094"/>
       <use xlink:href="#DejaVuSans-30" x="159.033203"/>
      </g>
     </g>
    </g>
    <g id="xtick_6">
     <g id="line2d_11">
      <path d="M 610.970854 585.16 
L 610.970854 7.2 
" clip-path="url(#p2d5e1577a9)" style="fill: none; stroke: #b0b0b0; stroke-width: 0.8; stroke-linecap: square"/>
     </g>
     <g id="line2d_12">
      <g>
       <use xlink:href="#m36566affb9" x="610.970854" y="585.16" style="stroke: #000000; stroke-width: 0.8"/>
      </g>
     </g>
     <g id="text_6">
      <!-- 12.5 -->
      <g transform="translate(575.345854 616.475) scale(0.32 -0.32)">
       <use xlink:href="#DejaVuSans-31"/>
       <use xlink:href="#DejaVuSans-32" x="63.623047"/>
       <use xlink:href="#DejaVuSans-2e" x="127.246094"/>
       <use xlink:href="#DejaVuSans-35" x="159.033203"/>
      </g>
     </g>
    </g>
    <g id="xtick_7">
     <g id="line2d_13">
      <path d="M 712.099142 585.16 
L 712.099142 7.2 
" clip-path="url(#p2d5e1577a9)" style="fill: none; stroke: #b0b0b0; stroke-width: 0.8; stroke-linecap: square"/>
     </g>
     <g id="line2d_14">
      <g>
       <use xlink:href="#m36566affb9" x="712.099142" y="585.16" style="stroke: #000000; stroke-width: 0.8"/>
      </g>
     </g>
     <g id="text_7">
      <!-- 15.0 -->
      <g transform="translate(676.474142 616.475) scale(0.32 -0.32)">
       <use xlink:href="#DejaVuSans-31"/>
       <use xlink:href="#DejaVuSans-35" x="63.623047"/>
       <use xlink:href="#DejaVuSans-2e" x="127.246094"/>
       <use xlink:href="#DejaVuSans-30" x="159.033203"/>
      </g>
     </g>
    </g>
    <g id="xtick_8">
     <g id="line2d_15">
      <path d="M 813.22743 585.16 
L 813.22743 7.2 
" clip-path="url(#p2d5e1577a9)" style="fill: none; stroke: #b0b0b0; stroke-width: 0.8; stroke-linecap: square"/>
     </g>
     <g id="line2d_16">
      <g>
       <use xlink:href="#m36566affb9" x="813.22743" y="585.16" style="stroke: #000000; stroke-width: 0.8"/>
      </g>
     </g>
     <g id="text_8">
      <!-- 17.5 -->
      <g transform="translate(777.60243 616.475) scale(0.32 -0.32)">
       <use xlink:href="#DejaVuSans-31"/>
       <use xlink:href="#DejaVuSans-37" x="63.623047"/>
       <use xlink:href="#DejaVuSans-2e" x="127.246094"/>
       <use xlink:href="#DejaVuSans-35" x="159.033203"/>
      </g>
     </g>
    </g>
    <g id="xtick_9">
     <g id="line2d_17">
      <path d="M 914.355718 585.16 
L 914.355718 7.2 
" clip-path="url(#p2d5e1577a9)" style="fill: none; stroke: #b0b0b0; stroke-width: 0.8; stroke-linecap: square"/>
     </g>
     <g id="line2d_18">
      <g>
       <use xlink:href="#m36566affb9" x="914.355718" y="585.16" style="stroke: #000000; stroke-width: 0.8"/>
      </g>
     </g>
     <g id="text_9">
      <!-- 20.0 -->
      <g transform="translate(878.730718 616.475) scale(0.32 -0.32)">
       <use xlink:href="#DejaVuSans-32"/>
       <use xlink:href="#DejaVuSans-30" x="63.623047"/>
       <use xlink:href="#DejaVuSans-2e" x="127.246094"/>
       <use xlink:href="#DejaVuSans-30" x="159.033203"/>
      </g>
     </g>
    </g>
    <g id="text_10">
     <!-- Time (s) -->
     <g transform="translate(442.7675 651.445) scale(0.32 -0.32)">
      <defs>
       <path id="DejaVuSans-54" d="M -19 4666 
L 3928 4666 
L 3928 4134 
L 2272 4134 
L 2272 0 
L 1638 0 
L 1638 4134 
L -19 4134 
L -19 4666 
z
" transform="scale(0.015625)"/>
       <path id="DejaVuSans-69" d="M 603 3500 
L 1178 3500 
L 1178 0 
L 603 0 
L 603 3500 
z
M 603 4863 
L 1178 4863 
L 1178 4134 
L 603 4134 
L 603 4863 
z
" transform="scale(0.015625)"/>
       <path id="DejaVuSans-6d" d="M 3328 2828 
Q 3544 3216 3844 3400 
Q 4144 3584 4550 3584 
Q 5097 3584 5394 3201 
Q 5691 2819 5691 2113 
L 5691 0 
L 5113 0 
L 5113 2094 
Q 5113 2597 4934 2840 
Q 4756 3084 4391 3084 
Q 3944 3084 3684 2787 
Q 3425 2491 3425 1978 
L 3425 0 
L 2847 0 
L 2847 2094 
Q 2847 2600 2669 2842 
Q 2491 3084 2119 3084 
Q 1678 3084 1418 2786 
Q 1159 2488 1159 1978 
L 1159 0 
L 581 0 
L 581 3500 
L 1159 3500 
L 1159 2956 
Q 1356 3278 1631 3431 
Q 1906 3584 2284 3584 
Q 2666 3584 2933 3390 
Q 3200 3197 3328 2828 
z
" transform="scale(0.015625)"/>
       <path id="DejaVuSans-65" d="M 3597 1894 
L 3597 1613 
L 953 1613 
Q 991 1019 1311 708 
Q 1631 397 2203 397 
Q 2534 397 2845 478 
Q 3156 559 3463 722 
L 3463 178 
Q 3153 47 2828 -22 
Q 2503 -91 2169 -91 
Q 1331 -91 842 396 
Q 353 884 353 1716 
Q 353 2575 817 3079 
Q 1281 3584 2069 3584 
Q 2775 3584 3186 3129 
Q 3597 2675 3597 1894 
z
M 3022 2063 
Q 3016 2534 2758 2815 
Q 2500 3097 2075 3097 
Q 1594 3097 1305 2825 
Q 1016 2553 972 2059 
L 3022 2063 
z
" transform="scale(0.015625)"/>
       <path id="DejaVuSans-20" transform="scale(0.015625)"/>
       <path id="DejaVuSans-28" d="M 1984 4856 
Q 1566 4138 1362 3434 
Q 1159 2731 1159 2009 
Q 1159 1288 1364 580 
Q 1569 -128 1984 -844 
L 1484 -844 
Q 1016 -109 783 600 
Q 550 1309 550 2009 
Q 550 2706 781 3412 
Q 1013 4119 1484 4856 
L 1984 4856 
z
" transform="scale(0.015625)"/>
       <path id="DejaVuSans-73" d="M 2834 3397 
L 2834 2853 
Q 2591 2978 2328 3040 
Q 2066 3103 1784 3103 
Q 1356 3103 1142 2972 
Q 928 2841 928 2578 
Q 928 2378 1081 2264 
Q 1234 2150 1697 2047 
L 1894 2003 
Q 2506 1872 2764 1633 
Q 3022 1394 3022 966 
Q 3022 478 2636 193 
Q 2250 -91 1575 -91 
Q 1294 -91 989 -36 
Q 684 19 347 128 
L 347 722 
Q 666 556 975 473 
Q 1284 391 1588 391 
Q 1994 391 2212 530 
Q 2431 669 2431 922 
Q 2431 1156 2273 1281 
Q 2116 1406 1581 1522 
L 1381 1569 
Q 847 1681 609 1914 
Q 372 2147 372 2553 
Q 372 3047 722 3315 
Q 1072 3584 1716 3584 
Q 2034 3584 2315 3537 
Q 2597 3491 2834 3397 
z
" transform="scale(0.015625)"/>
       <path id="DejaVuSans-29" d="M 513 4856 
L 1013 4856 
Q 1481 4119 1714 3412 
Q 1947 2706 1947 2009 
Q 1947 1309 1714 600 
Q 1481 -109 1013 -844 
L 513 -844 
Q 928 -128 1133 580 
Q 1338 1288 1338 2009 
Q 1338 2731 1133 3434 
Q 928 4138 513 4856 
z
" transform="scale(0.015625)"/>
      </defs>
      <use xlink:href="#DejaVuSans-54"/>
      <use xlink:href="#DejaVuSans-69" x="57.958984"/>
      <use xlink:href="#DejaVuSans-6d" x="85.742188"/>
      <use xlink:href="#DejaVuSans-65" x="183.154297"/>
      <use xlink:href="#DejaVuSans-20" x="244.677734"/>
      <use xlink:href="#DejaVuSans-28" x="276.464844"/>
      <use xlink:href="#DejaVuSans-73" x="315.478516"/>
      <use xlink:href="#DejaVuSans-29" x="367.578125"/>
     </g>
    </g>
   </g>
   <g id="matplotlib.axis_2">
    <g id="ytick_1">
     <g id="line2d_19">
      <path d="M 69.53 558.933372 
L 946.11 558.933372 
" clip-path="url(#p2d5e1577a9)" style="fill: none; stroke: #b0b0b0; stroke-width: 0.8; stroke-linecap: square"/>
     </g>
     <g id="line2d_20">
      <defs>
       <path id="m712781b4de" d="M 0 0 
L -3.5 0 
" style="stroke: #000000; stroke-width: 0.8"/>
      </defs>
      <g>
       <use xlink:href="#m712781b4de" x="69.53" y="558.933372" style="stroke: #000000; stroke-width: 0.8"/>
      </g>
     </g>
     <g id="text_11">
      <!-- 0 -->
      <g transform="translate(42.17 571.090872) scale(0.32 -0.32)">
       <use xlink:href="#DejaVuSans-30"/>
      </g>
     </g>
    </g>
    <g id="ytick_2">
     <g id="line2d_21">
      <path d="M 69.53 447.706358 
L 946.11 447.706358 
" clip-path="url(#p2d5e1577a9)" style="fill: none; stroke: #b0b0b0; stroke-width: 0.8; stroke-linecap: square"/>
     </g>
     <g id="line2d_22">
      <g>
       <use xlink:href="#m712781b4de" x="69.53" y="447.706358" style="stroke: #000000; stroke-width: 0.8"/>
      </g>
     </g>
     <g id="text_12">
      <!-- 2 -->
      <g transform="translate(42.17 459.863858) scale(0.32 -0.32)">
       <use xlink:href="#DejaVuSans-32"/>
      </g>
     </g>
    </g>
    <g id="ytick_3">
     <g id="line2d_23">
      <path d="M 69.53 336.479344 
L 946.11 336.479344 
" clip-path="url(#p2d5e1577a9)" style="fill: none; stroke: #b0b0b0; stroke-width: 0.8; stroke-linecap: square"/>
     </g>
     <g id="line2d_24">
      <g>
       <use xlink:href="#m712781b4de" x="69.53" y="336.479344" style="stroke: #000000; stroke-width: 0.8"/>
      </g>
     </g>
     <g id="text_13">
      <!-- 4 -->
      <g transform="translate(42.17 348.636844) scale(0.32 -0.32)">
       <defs>
        <path id="DejaVuSans-34" d="M 2419 4116 
L 825 1625 
L 2419 1625 
L 2419 4116 
z
M 2253 4666 
L 3047 4666 
L 3047 1625 
L 3713 1625 
L 3713 1100 
L 3047 1100 
L 3047 0 
L 2419 0 
L 2419 1100 
L 313 1100 
L 313 1709 
L 2253 4666 
z
" transform="scale(0.015625)"/>
       </defs>
       <use xlink:href="#DejaVuSans-34"/>
      </g>
     </g>
    </g>
    <g id="ytick_4">
     <g id="line2d_25">
      <path d="M 69.53 225.25233 
L 946.11 225.25233 
" clip-path="url(#p2d5e1577a9)" style="fill: none; stroke: #b0b0b0; stroke-width: 0.8; stroke-linecap: square"/>
     </g>
     <g id="line2d_26">
      <g>
       <use xlink:href="#m712781b4de" x="69.53" y="225.25233" style="stroke: #000000; stroke-width: 0.8"/>
      </g>
     </g>
     <g id="text_14">
      <!-- 6 -->
      <g transform="translate(42.17 237.40983) scale(0.32 -0.32)">
       <defs>
        <path id="DejaVuSans-36" d="M 2113 2584 
Q 1688 2584 1439 2293 
Q 1191 2003 1191 1497 
Q 1191 994 1439 701 
Q 1688 409 2113 409 
Q 2538 409 2786 701 
Q 3034 994 3034 1497 
Q 3034 2003 2786 2293 
Q 2538 2584 2113 2584 
z
M 3366 4563 
L 3366 3988 
Q 3128 4100 2886 4159 
Q 2644 4219 2406 4219 
Q 1781 4219 1451 3797 
Q 1122 3375 1075 2522 
Q 1259 2794 1537 2939 
Q 1816 3084 2150 3084 
Q 2853 3084 3261 2657 
Q 3669 2231 3669 1497 
Q 3669 778 3244 343 
Q 2819 -91 2113 -91 
Q 1303 -91 875 529 
Q 447 1150 447 2328 
Q 447 3434 972 4092 
Q 1497 4750 2381 4750 
Q 2619 4750 2861 4703 
Q 3103 4656 3366 4563 
z
" transform="scale(0.015625)"/>
       </defs>
       <use xlink:href="#DejaVuSans-36"/>
      </g>
     </g>
    </g>
    <g id="ytick_5">
     <g id="line2d_27">
      <path d="M 69.53 114.025317 
L 946.11 114.025317 
" clip-path="url(#p2d5e1577a9)" style="fill: none; stroke: #b0b0b0; stroke-width: 0.8; stroke-linecap: square"/>
     </g>
     <g id="line2d_28">
      <g>
       <use xlink:href="#m712781b4de" x="69.53" y="114.025317" style="stroke: #000000; stroke-width: 0.8"/>
      </g>
     </g>
     <g id="text_15">
      <!-- 8 -->
      <g transform="translate(42.17 126.182817) scale(0.32 -0.32)">
       <defs>
        <path id="DejaVuSans-38" d="M 2034 2216 
Q 1584 2216 1326 1975 
Q 1069 1734 1069 1313 
Q 1069 891 1326 650 
Q 1584 409 2034 409 
Q 2484 409 2743 651 
Q 3003 894 3003 1313 
Q 3003 1734 2745 1975 
Q 2488 2216 2034 2216 
z
M 1403 2484 
Q 997 2584 770 2862 
Q 544 3141 544 3541 
Q 544 4100 942 4425 
Q 1341 4750 2034 4750 
Q 2731 4750 3128 4425 
Q 3525 4100 3525 3541 
Q 3525 3141 3298 2862 
Q 3072 2584 2669 2484 
Q 3125 2378 3379 2068 
Q 3634 1759 3634 1313 
Q 3634 634 3220 271 
Q 2806 -91 2034 -91 
Q 1263 -91 848 271 
Q 434 634 434 1313 
Q 434 1759 690 2068 
Q 947 2378 1403 2484 
z
M 1172 3481 
Q 1172 3119 1398 2916 
Q 1625 2713 2034 2713 
Q 2441 2713 2670 2916 
Q 2900 3119 2900 3481 
Q 2900 3844 2670 4047 
Q 2441 4250 2034 4250 
Q 1625 4250 1398 4047 
Q 1172 3844 1172 3481 
z
" transform="scale(0.015625)"/>
       </defs>
       <use xlink:href="#DejaVuSans-38"/>
      </g>
     </g>
    </g>
    <g id="text_16">
     <!-- Speed (m/s) -->
     <g transform="translate(31.515 393.2225) rotate(-90) scale(0.32 -0.32)">
      <defs>
       <path id="DejaVuSans-53" d="M 3425 4513 
L 3425 3897 
Q 3066 4069 2747 4153 
Q 2428 4238 2131 4238 
Q 1616 4238 1336 4038 
Q 1056 3838 1056 3469 
Q 1056 3159 1242 3001 
Q 1428 2844 1947 2747 
L 2328 2669 
Q 3034 2534 3370 2195 
Q 3706 1856 3706 1288 
Q 3706 609 3251 259 
Q 2797 -91 1919 -91 
Q 1588 -91 1214 -16 
Q 841 59 441 206 
L 441 856 
Q 825 641 1194 531 
Q 1563 422 1919 422 
Q 2459 422 2753 634 
Q 3047 847 3047 1241 
Q 3047 1584 2836 1778 
Q 2625 1972 2144 2069 
L 1759 2144 
Q 1053 2284 737 2584 
Q 422 2884 422 3419 
Q 422 4038 858 4394 
Q 1294 4750 2059 4750 
Q 2388 4750 2728 4690 
Q 3069 4631 3425 4513 
z
" transform="scale(0.015625)"/>
       <path id="DejaVuSans-70" d="M 1159 525 
L 1159 -1331 
L 581 -1331 
L 581 3500 
L 1159 3500 
L 1159 2969 
Q 1341 3281 1617 3432 
Q 1894 3584 2278 3584 
Q 2916 3584 3314 3078 
Q 3713 2572 3713 1747 
Q 3713 922 3314 415 
Q 2916 -91 2278 -91 
Q 1894 -91 1617 61 
Q 1341 213 1159 525 
z
M 3116 1747 
Q 3116 2381 2855 2742 
Q 2594 3103 2138 3103 
Q 1681 3103 1420 2742 
Q 1159 2381 1159 1747 
Q 1159 1113 1420 752 
Q 1681 391 2138 391 
Q 2594 391 2855 752 
Q 3116 1113 3116 1747 
z
" transform="scale(0.015625)"/>
       <path id="DejaVuSans-64" d="M 2906 2969 
L 2906 4863 
L 3481 4863 
L 3481 0 
L 2906 0 
L 2906 525 
Q 2725 213 2448 61 
Q 2172 -91 1784 -91 
Q 1150 -91 751 415 
Q 353 922 353 1747 
Q 353 2572 751 3078 
Q 1150 3584 1784 3584 
Q 2172 3584 2448 3432 
Q 2725 3281 2906 2969 
z
M 947 1747 
Q 947 1113 1208 752 
Q 1469 391 1925 391 
Q 2381 391 2643 752 
Q 2906 1113 2906 1747 
Q 2906 2381 2643 2742 
Q 2381 3103 1925 3103 
Q 1469 3103 1208 2742 
Q 947 2381 947 1747 
z
" transform="scale(0.015625)"/>
       <path id="DejaVuSans-2f" d="M 1625 4666 
L 2156 4666 
L 531 -594 
L 0 -594 
L 1625 4666 
z
" transform="scale(0.015625)"/>
      </defs>
      <use xlink:href="#DejaVuSans-53"/>
      <use xlink:href="#DejaVuSans-70" x="63.476562"/>
      <use xlink:href="#DejaVuSans-65" x="126.953125"/>
      <use xlink:href="#DejaVuSans-65" x="188.476562"/>
      <use xlink:href="#DejaVuSans-64" x="250"/>
      <use xlink:href="#DejaVuSans-20" x="313.476562"/>
      <use xlink:href="#DejaVuSans-28" x="345.263672"/>
      <use xlink:href="#DejaVuSans-6d" x="384.277344"/>
      <use xlink:href="#DejaVuSans-2f" x="481.689453"/>
      <use xlink:href="#DejaVuSans-73" x="515.380859"/>
      <use xlink:href="#DejaVuSans-29" x="567.480469"/>
     </g>
    </g>
   </g>
   <g id="line2d_29">
    <path d="M 109.374545 504.43213 
L 113.419677 449.930883 
L 117.464808 414.183942 
L 121.50994 542.814708 
L 125.555072 549.119717 
L 129.600203 548.685408 
L 133.645335 552.386067 
L 137.690466 555.369253 
L 141.735598 481.027131 
L 145.780729 438.43091 
L 149.825861 407.917474 
L 153.870992 383.508794 
L 157.916124 360.576805 
L 161.961255 338.41929 
L 166.006387 317.609507 
L 174.09665 278.317479 
L 178.141781 269.594021 
L 182.186913 267.60905 
L 186.232044 258.215446 
L 190.277176 244.384405 
L 194.322307 221.004748 
L 198.367439 226.524632 
L 202.41257 252.042368 
L 206.457702 334.502502 
L 210.502833 439.446812 
L 214.547965 558.539126 
L 218.593096 558.83175 
L 222.638228 555.989455 
L 226.683359 541.698648 
L 230.728491 525.252416 
L 234.773623 509.963579 
L 238.818754 488.417803 
L 242.863886 469.231181 
L 246.909017 449.073375 
L 250.954149 431.253382 
L 254.99928 406.945735 
L 259.044412 380.949565 
L 263.089543 357.483669 
L 267.134675 341.270054 
L 271.179806 327.535437 
L 275.224938 312.043936 
L 283.315201 272.766212 
L 287.360332 267.319621 
L 291.405464 263.780659 
L 295.450595 252.612793 
L 299.495727 238.898045 
L 303.540858 223.217822 
L 307.58599 212.233209 
L 311.631121 220.744994 
L 315.676253 236.431095 
L 319.721384 258.709005 
L 323.766516 335.175875 
L 331.856779 543.067053 
L 335.90191 558.889091 
L 339.947042 556.960444 
L 343.992174 540.616708 
L 348.037305 519.723312 
L 352.082437 497.145812 
L 356.127568 472.301302 
L 360.1727 451.126145 
L 368.262963 405.749326 
L 376.353226 359.190064 
L 380.398357 336.68328 
L 384.443489 315.575866 
L 388.48862 295.345038 
L 392.533752 275.704542 
L 396.578883 268.078986 
L 400.624015 264.465308 
L 404.669146 254.016469 
L 408.714278 239.669279 
L 412.759409 223.23901 
L 416.804541 199.054926 
L 420.849672 184.60792 
L 428.939935 150.548227 
L 432.985067 134.090771 
L 437.030198 119.995257 
L 441.07533 119.041985 
L 445.120461 127.056358 
L 449.165593 122.879649 
L 453.210725 113.165536 
L 457.255856 102.49476 
L 461.300988 96.284828 
L 465.346119 100.058907 
L 469.391251 99.406409 
L 473.436382 91.55791 
L 477.481514 80.637149 
L 481.526645 76.633981 
L 485.571777 83.67301 
L 489.616908 97.613894 
L 493.66204 117.754548 
L 501.752303 163.798454 
L 505.797434 185.950942 
L 509.842566 202.819668 
L 513.887697 208.661895 
L 517.932829 204.793043 
L 521.97796 194.44864 
L 526.023092 180.455937 
L 530.068223 164.649357 
L 538.158486 131.201299 
L 542.203618 124.040844 
L 546.248749 126.604673 
L 550.293881 123.300095 
L 554.339012 113.696464 
L 558.384144 100.636141 
L 562.429275 95.614822 
L 566.474407 99.168823 
L 570.519539 96.436764 
L 574.56467 87.210035 
L 578.609802 79.826833 
L 586.700065 84.176308 
L 590.745196 81.855643 
L 594.790328 72.885807 
L 598.835459 69.73286 
L 602.880591 75.011945 
L 606.925722 78.141667 
L 610.970854 78.312378 
L 615.015985 70.799371 
L 619.061117 68.371418 
L 623.106248 84.757145 
L 627.15138 116.100003 
L 631.196511 137.820306 
L 635.241643 168.001057 
L 639.286774 204.278152 
L 643.331906 260.850905 
L 647.377037 344.714088 
L 651.422169 409.763748 
L 655.4673 472.613977 
L 659.512432 474.482352 
L 663.557563 461.361812 
L 667.602695 444.101332 
L 671.647826 418.187662 
L 675.692958 395.24914 
L 679.73809 373.387637 
L 683.783221 349.226266 
L 687.828353 329.007816 
L 691.873484 307.089531 
L 699.963747 267.975823 
L 704.008879 269.289173 
L 708.05401 262.503599 
L 712.099142 250.25493 
L 716.144273 236.943567 
L 720.189405 222.483265 
L 724.234536 221.398318 
L 728.279668 217.725628 
L 732.324799 207.637017 
L 736.369931 207.010279 
L 740.415062 216.374847 
L 744.460194 244.775257 
L 748.505325 262.155318 
L 752.550457 295.220808 
L 756.595588 303.737479 
L 760.64072 326.498697 
L 764.685851 354.6915 
L 768.730983 365.292546 
L 772.776114 365.699975 
L 776.821246 358.599944 
L 780.866377 343.566521 
L 784.911509 322.537319 
L 788.956641 304.448815 
L 797.046904 264.408739 
L 801.092035 258.053309 
L 805.137167 251.317453 
L 809.182298 240.168542 
L 813.22743 224.926301 
L 817.272561 207.450116 
L 821.317693 187.793988 
L 829.407956 151.53582 
L 833.453087 140.962245 
L 837.498219 141.625369 
L 841.54335 137.342069 
L 845.588482 126.813056 
L 849.633613 115.402906 
L 853.678745 110.362505 
L 857.723876 110.954802 
L 861.769008 104.86879 
L 865.814139 93.473477 
L 869.859271 84.696849 
L 873.904402 91.695879 
L 877.949534 102.893349 
L 881.994665 115.345047 
L 886.039797 128.255475 
L 890.084928 133.265625 
L 894.13006 128.580299 
L 894.13006 128.580299 
" clip-path="url(#p2d5e1577a9)" style="fill: none; stroke: #1f77b4; stroke-width: 3; stroke-linecap: square"/>
   </g>
   <g id="line2d_30">
    <path d="M 109.374545 504.43213 
L 113.419677 449.930883 
L 117.464808 414.192924 
L 121.50994 542.814141 
L 125.555072 549.118833 
L 129.600203 548.685769 
L 133.645335 488.719048 
L 137.690466 432.296595 
L 141.735598 404.234666 
L 145.780729 386.898854 
L 149.825861 367.666019 
L 153.870992 353.778352 
L 157.916124 338.740529 
L 161.961255 329.853622 
L 166.006387 317.651574 
L 170.051518 308.151727 
L 174.09665 300.924777 
L 178.141781 299.018141 
L 182.186913 301.166729 
L 186.232044 285.760851 
L 190.277176 281.031699 
L 194.322307 279.644282 
L 198.367439 277.006726 
L 202.41257 281.090974 
L 206.457702 277.225559 
L 210.502833 270.350611 
L 214.547965 276.454674 
L 218.593096 274.993973 
L 222.638228 269.779783 
L 226.683359 263.0909 
L 230.728491 263.575064 
L 234.773623 263.033792 
L 238.818754 261.410717 
L 242.863886 257.604995 
L 246.909017 265.849325 
L 250.954149 260.571791 
L 254.99928 257.067657 
L 259.044412 266.33507 
L 263.089543 272.133546 
L 267.134675 277.252625 
L 271.179806 275.433295 
L 275.224938 254.664538 
L 279.270069 255.682635 
L 283.315201 264.780899 
L 287.360332 268.54364 
L 291.405464 262.321029 
L 295.450595 260.711988 
L 299.495727 257.149406 
L 303.540858 254.279277 
L 307.58599 259.672794 
L 311.631121 253.110773 
L 315.676253 254.568086 
L 319.721384 249.312153 
L 323.766516 248.893835 
L 327.811647 245.21908 
L 331.856779 247.759989 
L 335.90191 244.434169 
L 339.947042 244.982331 
L 343.992174 241.555055 
L 348.037305 240.525335 
L 352.082437 240.466793 
L 360.1727 244.958384 
L 364.217831 250.813019 
L 368.262963 256.394499 
L 372.308094 251.157164 
L 376.353226 258.920168 
L 380.398357 257.033491 
L 384.443489 259.190598 
L 388.48862 256.320932 
L 392.533752 259.887483 
L 396.578883 247.525199 
L 400.624015 250.108964 
L 404.669146 253.598105 
L 408.714278 253.465568 
L 412.759409 259.608362 
L 416.804541 257.011637 
L 420.849672 258.678875 
L 424.894804 257.472685 
L 428.939935 255.684705 
L 432.985067 261.197383 
L 437.030198 258.142951 
L 441.07533 261.086273 
L 445.120461 261.421634 
L 449.165593 257.654106 
L 453.210725 261.519604 
L 457.255856 258.763943 
L 461.300988 258.866332 
L 465.346119 255.647765 
L 469.391251 255.464202 
L 473.436382 253.116199 
L 477.481514 253.341877 
L 481.526645 251.540687 
L 485.571777 252.603753 
L 489.616908 250.506559 
L 493.66204 254.735917 
L 497.707171 253.783863 
L 501.752303 255.840186 
L 505.797434 254.060642 
L 509.842566 254.96989 
L 513.887697 252.743456 
L 517.932829 253.175448 
L 521.97796 251.270439 
L 526.023092 252.299284 
L 530.068223 250.928172 
L 534.113355 251.961739 
L 538.158486 250.771743 
L 542.203618 251.177359 
L 546.248749 250.511879 
L 550.293881 256.042518 
L 554.339012 253.728041 
L 558.384144 257.846386 
L 562.429275 257.846774 
L 566.474407 253.958375 
L 570.519539 258.243894 
L 574.56467 255.311643 
L 578.609802 255.123495 
L 582.654933 252.307564 
L 586.700065 252.034196 
L 590.745196 250.004146 
L 594.790328 249.976886 
L 598.835459 250.388113 
L 602.880591 249.331991 
L 606.925722 255.263109 
L 610.970854 252.631511 
L 615.015985 253.569372 
L 619.061117 260.674458 
L 623.106248 257.22377 
L 627.15138 259.116273 
L 631.196511 252.576547 
L 639.286774 249.438363 
L 643.331906 255.140685 
L 647.377037 253.434239 
L 651.422169 252.33599 
L 655.4673 257.765867 
L 659.512432 253.469409 
L 663.557563 252.32927 
L 667.602695 258.554276 
L 671.647826 269.403312 
L 675.692958 253.287659 
L 679.73809 254.015355 
L 683.783221 261.919929 
L 687.828353 259.403941 
L 691.873484 257.7899 
L 695.918616 254.366746 
L 699.963747 253.823019 
L 704.008879 251.124123 
L 708.05401 251.136655 
L 712.099142 258.462667 
L 716.144273 253.311786 
L 720.189405 252.44491 
L 724.234536 259.313671 
L 728.279668 255.449537 
L 732.324799 254.643909 
L 736.369931 260.824128 
L 740.415062 255.83282 
L 744.460194 255.700262 
L 748.505325 253.789445 
L 752.550457 253.244374 
L 756.595588 259.501066 
L 760.64072 254.940534 
L 764.685851 255.686754 
L 768.730983 257.066797 
L 772.776114 254.861211 
L 776.821246 259.592873 
L 780.866377 255.649148 
L 784.911509 256.277825 
L 788.956641 253.528482 
L 793.001772 253.780875 
L 797.046904 250.989678 
L 801.092035 251.880208 
L 805.137167 250.80909 
L 809.182298 254.606671 
L 813.22743 252.636379 
L 817.272561 257.528388 
L 821.317693 254.818445 
L 825.362824 255.248218 
L 829.407956 251.88132 
L 833.453087 252.615243 
L 837.498219 251.264616 
L 841.54335 254.143071 
L 845.588482 252.278311 
L 849.633613 257.145297 
L 853.678745 254.787412 
L 857.723876 256.055909 
L 861.769008 252.367409 
L 865.814139 252.728883 
L 869.859271 250.432741 
L 873.904402 251.185472 
L 877.949534 248.645782 
L 881.994665 249.549132 
L 886.039797 248.522654 
L 890.084928 250.245949 
L 894.13006 249.207089 
L 898.175192 254.944322 
L 902.220323 252.598133 
L 906.265455 253.785184 
L 906.265455 253.785184 
" clip-path="url(#p2d5e1577a9)" style="fill: none; stroke: #ff7f0e; stroke-width: 3; stroke-linecap: square"/>
   </g>
   <g id="line2d_31">
    <path d="M 109.374545 504.43213 
L 113.419677 449.930883 
L 117.464808 414.18881 
L 121.50994 542.816253 
L 125.555072 549.118786 
L 129.600203 489.445954 
L 133.645335 423.676615 
L 137.690466 374.865014 
L 141.735598 333.434851 
L 145.780729 295.0851 
L 149.825861 257.802811 
L 153.870992 242.900628 
L 157.916124 216.14306 
L 161.961255 171.4848 
L 166.006387 130.403565 
L 170.051518 91.87134 
L 174.09665 61.037843 
L 178.141781 46.501656 
L 182.186913 37.241345 
L 186.232044 33.505752 
L 190.277176 33.470909 
L 194.322307 33.69709 
L 198.367439 35.03243 
L 202.41257 36.451266 
L 206.457702 37.444568 
L 210.502833 37.996374 
L 214.547965 38.167267 
L 218.593096 38.100793 
L 222.638228 37.877777 
L 226.683359 37.527884 
L 230.728491 37.011806 
L 234.773623 36.366693 
L 238.818754 36.011071 
L 242.863886 36.511687 
L 246.909017 37.673211 
L 250.954149 42.358951 
L 254.99928 55.395461 
L 259.044412 73.464146 
L 263.089543 86.382427 
L 267.134675 85.483482 
L 271.179806 73.390469 
L 275.224938 67.332293 
L 279.270069 73.79792 
L 283.315201 89.41098 
L 287.360332 108.504929 
L 291.405464 110.880935 
L 295.450595 98.844524 
L 299.495727 77.663284 
L 303.540858 58.826984 
L 307.58599 45.178813 
L 311.631121 37.5188 
L 315.676253 34.146785 
L 319.721384 33.703204 
L 323.766516 34.744329 
L 327.811647 36.40389 
L 331.856779 38.026418 
L 335.90191 39.349985 
L 339.947042 40.252573 
L 343.992174 40.77884 
L 348.037305 41.005617 
L 352.082437 41.038536 
L 356.127568 40.963961 
L 360.1727 40.852817 
L 364.217831 40.742264 
L 368.262963 40.655103 
L 372.308094 40.593095 
L 376.353226 40.132071 
L 380.398357 39.792455 
L 384.443489 39.679943 
L 388.48862 39.491301 
L 392.533752 39.314187 
L 396.578883 39.316695 
L 400.624015 39.359564 
L 404.669146 39.361623 
L 408.714278 39.346083 
L 412.759409 39.330953 
L 416.804541 39.321306 
L 420.849672 39.301028 
L 424.894804 39.192992 
L 428.939935 39.158643 
L 432.985067 39.108368 
L 437.030198 38.941841 
L 441.07533 38.909294 
L 445.120461 38.868355 
L 449.165593 38.838109 
L 453.210725 38.834821 
L 457.255856 38.835104 
L 461.300988 38.833037 
L 465.346119 38.83306 
L 469.391251 38.839782 
L 473.436382 38.841873 
L 477.481514 38.840695 
L 481.526645 38.847061 
L 485.571777 38.854366 
L 489.616908 38.857663 
L 493.66204 38.85917 
L 497.707171 38.86388 
L 501.752303 38.864114 
L 505.797434 38.864177 
L 509.842566 38.862907 
L 513.887697 38.862074 
L 517.932829 38.862558 
L 521.97796 38.862027 
L 526.023092 38.86203 
L 530.068223 38.862106 
L 534.113355 38.861781 
L 538.158486 38.862166 
L 542.203618 38.862526 
L 546.248749 38.861796 
L 550.293881 38.861262 
L 554.339012 38.861238 
L 558.384144 38.860668 
L 562.429275 38.860087 
L 566.474407 38.860443 
L 570.519539 38.86042 
L 574.56467 38.859805 
L 578.609802 38.859972 
L 582.654933 38.860086 
L 586.700065 38.860559 
L 590.745196 38.861085 
" clip-path="url(#p2d5e1577a9)" style="fill: none; stroke: #2ca02c; stroke-width: 3; stroke-linecap: square"/>
   </g>
   <g id="line2d_32">
    <path d="M 69.53 172.728463 
L 946.11 172.728463 
" clip-path="url(#p2d5e1577a9)" style="fill: none; stroke-dasharray: 9.25,4; stroke-dashoffset: 0; stroke: #000000; stroke-width: 2.5"/>
   </g>
   <g id="patch_3">
    <path d="M 69.53 585.16 
L 69.53 7.2 
" style="fill: none; stroke: #000000; stroke-width: 0.8; stroke-linejoin: miter; stroke-linecap: square"/>
   </g>
   <g id="patch_4">
    <path d="M 946.11 585.16 
L 946.11 7.2 
" style="fill: none; stroke: #000000; stroke-width: 0.8; stroke-linejoin: miter; stroke-linecap: square"/>
   </g>
   <g id="patch_5">
    <path d="M 69.53 585.16 
L 946.11 585.16 
" style="fill: none; stroke: #000000; stroke-width: 0.8; stroke-linejoin: miter; stroke-linecap: square"/>
   </g>
   <g id="patch_6">
    <path d="M 69.53 7.2 
L 946.11 7.2 
" style="fill: none; stroke: #000000; stroke-width: 0.8; stroke-linejoin: miter; stroke-linecap: square"/>
   </g>
   <g id="legend_1">
    <g id="patch_7">
     <path d="M 695.37375 573.16 
L 929.31 573.16 
Q 934.11 573.16 934.11 568.36 
L 934.11 429.85 
Q 934.11 425.05 929.31 425.05 
L 695.37375 425.05 
Q 690.57375 425.05 690.57375 429.85 
L 690.57375 568.36 
Q 690.57375 573.16 695.37375 573.16 
z
" style="fill: #ffffff; opacity: 0.7; stroke: #cccccc; stroke-linejoin: miter"/>
    </g>
    <g id="line2d_33">
     <path d="M 700.17375 444.48625 
L 724.17375 444.48625 
L 748.17375 444.48625 
" style="fill: none; stroke: #1f77b4; stroke-width: 3; stroke-linecap: square"/>
    </g>
    <g id="text_17">
     <!-- LQR -->
     <g transform="translate(767.37375 452.88625) scale(0.24 -0.24)">
      <defs>
       <path id="DejaVuSans-4c" d="M 628 4666 
L 1259 4666 
L 1259 531 
L 3531 531 
L 3531 0 
L 628 0 
L 628 4666 
z
" transform="scale(0.015625)"/>
       <path id="DejaVuSans-51" d="M 2522 4238 
Q 1834 4238 1429 3725 
Q 1025 3213 1025 2328 
Q 1025 1447 1429 934 
Q 1834 422 2522 422 
Q 3209 422 3611 934 
Q 4013 1447 4013 2328 
Q 4013 3213 3611 3725 
Q 3209 4238 2522 4238 
z
M 3406 84 
L 4238 -825 
L 3475 -825 
L 2784 -78 
Q 2681 -84 2626 -87 
Q 2572 -91 2522 -91 
Q 1538 -91 948 567 
Q 359 1225 359 2328 
Q 359 3434 948 4092 
Q 1538 4750 2522 4750 
Q 3503 4750 4090 4092 
Q 4678 3434 4678 2328 
Q 4678 1516 4351 937 
Q 4025 359 3406 84 
z
" transform="scale(0.015625)"/>
       <path id="DejaVuSans-52" d="M 2841 2188 
Q 3044 2119 3236 1894 
Q 3428 1669 3622 1275 
L 4263 0 
L 3584 0 
L 2988 1197 
Q 2756 1666 2539 1819 
Q 2322 1972 1947 1972 
L 1259 1972 
L 1259 0 
L 628 0 
L 628 4666 
L 2053 4666 
Q 2853 4666 3247 4331 
Q 3641 3997 3641 3322 
Q 3641 2881 3436 2590 
Q 3231 2300 2841 2188 
z
M 1259 4147 
L 1259 2491 
L 2053 2491 
Q 2509 2491 2742 2702 
Q 2975 2913 2975 3322 
Q 2975 3731 2742 3939 
Q 2509 4147 2053 4147 
L 1259 4147 
z
" transform="scale(0.015625)"/>
      </defs>
      <use xlink:href="#DejaVuSans-4c"/>
      <use xlink:href="#DejaVuSans-51" x="55.712891"/>
      <use xlink:href="#DejaVuSans-52" x="134.423828"/>
     </g>
    </g>
    <g id="line2d_34">
     <path d="M 700.17375 479.71375 
L 724.17375 479.71375 
L 748.17375 479.71375 
" style="fill: none; stroke: #ff7f0e; stroke-width: 3; stroke-linecap: square"/>
    </g>
    <g id="text_18">
     <!-- PID -->
     <g transform="translate(767.37375 488.11375) scale(0.24 -0.24)">
      <defs>
       <path id="DejaVuSans-50" d="M 1259 4147 
L 1259 2394 
L 2053 2394 
Q 2494 2394 2734 2622 
Q 2975 2850 2975 3272 
Q 2975 3691 2734 3919 
Q 2494 4147 2053 4147 
L 1259 4147 
z
M 628 4666 
L 2053 4666 
Q 2838 4666 3239 4311 
Q 3641 3956 3641 3272 
Q 3641 2581 3239 2228 
Q 2838 1875 2053 1875 
L 1259 1875 
L 1259 0 
L 628 0 
L 628 4666 
z
" transform="scale(0.015625)"/>
       <path id="DejaVuSans-49" d="M 628 4666 
L 1259 4666 
L 1259 0 
L 628 0 
L 628 4666 
z
" transform="scale(0.015625)"/>
       <path id="DejaVuSans-44" d="M 1259 4147 
L 1259 519 
L 2022 519 
Q 2988 519 3436 956 
Q 3884 1394 3884 2338 
Q 3884 3275 3436 3711 
Q 2988 4147 2022 4147 
L 1259 4147 
z
M 628 4666 
L 1925 4666 
Q 3281 4666 3915 4102 
Q 4550 3538 4550 2338 
Q 4550 1131 3912 565 
Q 3275 0 1925 0 
L 628 0 
L 628 4666 
z
" transform="scale(0.015625)"/>
      </defs>
      <use xlink:href="#DejaVuSans-50"/>
      <use xlink:href="#DejaVuSans-49" x="60.302734"/>
      <use xlink:href="#DejaVuSans-44" x="89.794922"/>
     </g>
    </g>
    <g id="line2d_35">
     <path d="M 700.17375 514.94125 
L 724.17375 514.94125 
L 748.17375 514.94125 
" style="fill: none; stroke: #2ca02c; stroke-width: 3; stroke-linecap: square"/>
    </g>
    <g id="text_19">
     <!-- MPC -->
     <g transform="translate(767.37375 523.34125) scale(0.24 -0.24)">
      <defs>
       <path id="DejaVuSans-4d" d="M 628 4666 
L 1569 4666 
L 2759 1491 
L 3956 4666 
L 4897 4666 
L 4897 0 
L 4281 0 
L 4281 4097 
L 3078 897 
L 2444 897 
L 1241 4097 
L 1241 0 
L 628 0 
L 628 4666 
z
" transform="scale(0.015625)"/>
       <path id="DejaVuSans-43" d="M 4122 4306 
L 4122 3641 
Q 3803 3938 3442 4084 
Q 3081 4231 2675 4231 
Q 1875 4231 1450 3742 
Q 1025 3253 1025 2328 
Q 1025 1406 1450 917 
Q 1875 428 2675 428 
Q 3081 428 3442 575 
Q 3803 722 4122 1019 
L 4122 359 
Q 3791 134 3420 21 
Q 3050 -91 2638 -91 
Q 1578 -91 968 557 
Q 359 1206 359 2328 
Q 359 3453 968 4101 
Q 1578 4750 2638 4750 
Q 3056 4750 3426 4639 
Q 3797 4528 4122 4306 
z
" transform="scale(0.015625)"/>
      </defs>
      <use xlink:href="#DejaVuSans-4d"/>
      <use xlink:href="#DejaVuSans-50" x="86.279297"/>
      <use xlink:href="#DejaVuSans-43" x="146.582031"/>
     </g>
    </g>
    <g id="line2d_36">
     <path d="M 700.17375 550.16875 
L 724.17375 550.16875 
L 748.17375 550.16875 
" style="fill: none; stroke-dasharray: 9.25,4; stroke-dashoffset: 0; stroke: #000000; stroke-width: 2.5"/>
    </g>
    <g id="text_20">
     <!-- Target Speed -->
     <g transform="translate(767.37375 558.56875) scale(0.24 -0.24)">
      <defs>
       <path id="DejaVuSans-61" d="M 2194 1759 
Q 1497 1759 1228 1600 
Q 959 1441 959 1056 
Q 959 750 1161 570 
Q 1363 391 1709 391 
Q 2188 391 2477 730 
Q 2766 1069 2766 1631 
L 2766 1759 
L 2194 1759 
z
M 3341 1997 
L 3341 0 
L 2766 0 
L 2766 531 
Q 2569 213 2275 61 
Q 1981 -91 1556 -91 
Q 1019 -91 701 211 
Q 384 513 384 1019 
Q 384 1609 779 1909 
Q 1175 2209 1959 2209 
L 2766 2209 
L 2766 2266 
Q 2766 2663 2505 2880 
Q 2244 3097 1772 3097 
Q 1472 3097 1187 3025 
Q 903 2953 641 2809 
L 641 3341 
Q 956 3463 1253 3523 
Q 1550 3584 1831 3584 
Q 2591 3584 2966 3190 
Q 3341 2797 3341 1997 
z
" transform="scale(0.015625)"/>
       <path id="DejaVuSans-72" d="M 2631 2963 
Q 2534 3019 2420 3045 
Q 2306 3072 2169 3072 
Q 1681 3072 1420 2755 
Q 1159 2438 1159 1844 
L 1159 0 
L 581 0 
L 581 3500 
L 1159 3500 
L 1159 2956 
Q 1341 3275 1631 3429 
Q 1922 3584 2338 3584 
Q 2397 3584 2469 3576 
Q 2541 3569 2628 3553 
L 2631 2963 
z
" transform="scale(0.015625)"/>
       <path id="DejaVuSans-67" d="M 2906 1791 
Q 2906 2416 2648 2759 
Q 2391 3103 1925 3103 
Q 1463 3103 1205 2759 
Q 947 2416 947 1791 
Q 947 1169 1205 825 
Q 1463 481 1925 481 
Q 2391 481 2648 825 
Q 2906 1169 2906 1791 
z
M 3481 434 
Q 3481 -459 3084 -895 
Q 2688 -1331 1869 -1331 
Q 1566 -1331 1297 -1286 
Q 1028 -1241 775 -1147 
L 775 -588 
Q 1028 -725 1275 -790 
Q 1522 -856 1778 -856 
Q 2344 -856 2625 -561 
Q 2906 -266 2906 331 
L 2906 616 
Q 2728 306 2450 153 
Q 2172 0 1784 0 
Q 1141 0 747 490 
Q 353 981 353 1791 
Q 353 2603 747 3093 
Q 1141 3584 1784 3584 
Q 2172 3584 2450 3431 
Q 2728 3278 2906 2969 
L 2906 3500 
L 3481 3500 
L 3481 434 
z
" transform="scale(0.015625)"/>
       <path id="DejaVuSans-74" d="M 1172 4494 
L 1172 3500 
L 2356 3500 
L 2356 3053 
L 1172 3053 
L 1172 1153 
Q 1172 725 1289 603 
Q 1406 481 1766 481 
L 2356 481 
L 2356 0 
L 1766 0 
Q 1100 0 847 248 
Q 594 497 594 1153 
L 594 3053 
L 172 3053 
L 172 3500 
L 594 3500 
L 594 4494 
L 1172 4494 
z
" transform="scale(0.015625)"/>
      </defs>
      <use xlink:href="#DejaVuSans-54"/>
      <use xlink:href="#DejaVuSans-61" x="44.583984"/>
      <use xlink:href="#DejaVuSans-72" x="105.863281"/>
      <use xlink:href="#DejaVuSans-67" x="145.226562"/>
      <use xlink:href="#DejaVuSans-65" x="208.703125"/>
      <use xlink:href="#DejaVuSans-74" x="270.226562"/>
      <use xlink:href="#DejaVuSans-20" x="309.435547"/>
      <use xlink:href="#DejaVuSans-53" x="341.222656"/>
      <use xlink:href="#DejaVuSans-70" x="404.699219"/>
      <use xlink:href="#DejaVuSans-65" x="468.175781"/>
      <use xlink:href="#DejaVuSans-65" x="529.699219"/>
      <use xlink:href="#DejaVuSans-64" x="591.222656"/>
     </g>
    </g>
   </g>
  </g>
 </g>
 <defs>
  <clipPath id="p2d5e1577a9">
   <rect x="69.53" y="7.2" width="876.58" height="577.96"/>
  </clipPath>
 </defs>
</svg>
